<?xml version="1.0" encoding="utf-8"?>
<!-- Generator: Adobe Illustrator 18.1.0, SVG Export Plug-In . SVG Version: 6.00 Build 0)  -->
<svg version="1.1" id="Calque_1" xmlns="http://www.w3.org/2000/svg" xmlns:xlink="http://www.w3.org/1999/xlink" x="0px" y="0px"
	 width="197.1px" height="192px" viewBox="-83 46.5 197.1 192" enable-background="new -83 46.5 197.1 192" xml:space="preserve">
<g id="Calque_1_1_">
</g>
<g>
	<path fill="#1A171B" d="M41.3,69.5c7.7,1.9,7.8-11.8,1.1-9.5C40,60.8,38.2,68.8,41.3,69.5C43.6,70.1,39,68.9,41.3,69.5z"/>
	<path fill="#1A171B" d="M73.7,83.4c2.6,2.8,11.1-3.1,8.3-6.9C78.5,71.8,70.1,79.4,73.7,83.4C74.9,84.8,72.8,82.4,73.7,83.4z"/>
	<path fill="#1A171B" d="M58,59.1c-1.4-0.1-1.1,4.1-1.1,4.8C58.6,62.1,59.8,59.2,58,59.1z"/>
	<path fill="#1A171B" d="M-13.7,83.2c0.5-0.7,0-2.6-1.1-2.3C-16.2,81.1-14.4,84.3-13.7,83.2z"/>
	<path fill="#1A171B" d="M46,78.9c-2,1.8-0.6,6.2,2.3,4.1C51.3,80.8,48.7,76.5,46,78.9C44.7,79.9,47.1,77.9,46,78.9z"/>
	<path fill="#1A171B" d="M30.7,215.2c-1.9-1-4.2,2.6-1.8,3.6C30.7,219.5,32.3,216.1,30.7,215.2C30.1,214.9,32.2,216,30.7,215.2z"/>
	<path fill="#1A171B" d="M91.6,141.4c1.5,0.7,4.9-2.2,2.6-3C92.9,137.9,90.1,140.6,91.6,141.4C92.2,141.6,90.3,140.7,91.6,141.4z"/>
	<path fill="#1A171B" d="M-26.2,175c0.1,0.9,0.3,1.1,0.4,1.8c0-0.2-0.1-0.4-0.3-0.4c0.2,0.8,0.3,0.6,0.4,1.1c0-0.5-0.1-1-0.2-1.5
		c0.3,0.5,0.9,2.4,0.7,3.2c0-0.3-0.1-0.5-0.3-0.7c0.1,0.3,0.7,2.8,0.4,2.7c0.3,0.1,0.2,1.1,0.2,1.3c-0.1-0.1,0.2,1.2,0.5,1.7
		c-0.1-0.1-0.1-0.2-0.1-0.4c0.1,0.1,0.1,0-0.1-0.2c0-0.2,0.3,2,0.1,0.7c0.3,0.5,0.4,1.4,0.4,1.8c0,0.3-0.2-0.4-0.3-0.4
		c0.1,0.9,0.5,1.1,0.6,2.1c0.1,0.8,0.2,1.5,0.2,2.3c-0.1-0.8,0.2,0.2-0.2-1.2c-0.2,0.1,0,1.2,0.2,1.4c-0.2-0.1-0.2-0.3-0.2-0.5
		c0,0.8,0.4,1.3,0.6,2c0.1-0.3,0-0.4-0.2-0.5c-0.3,0.7,0.3,1.1,0.4,1.8c-0.3-1.6-0.1,0-0.3-0.5c-0.1-0.2-0.7-2.1-0.6-2.1
		c0.3,0.7-0.2,0.9,0.2,1.5c0-0.7,0.4,1,0.6,1.8c0.1,0.5,0.4,1.2,0.4,1.6c0,0-0.2-0.3-0.2-0.4c0,0.1,0.3,1.2,0.3,1.2
		c-0.1-0.2-0.1-0.4-0.2-0.7c0.2,1,0.8,1.1,0.2,0.9c0.3,0.9,0.4,1.2,0.4,1.2c0.1,0.3,0.2,1.4,0.2,1.4c-0.1-0.2-0.2-0.2-0.1,0.1
		c0.1-1-0.2-0.3-0.3-1.1c0.1,0,0.1,0.1,0.2,0.1c0.1,0-0.2-0.8-0.3-0.8c0,0.5,0.2,1,0.2,1.5c-0.4-0.9,0.3,0.4-0.2,0
		c0,0.2,0.1,0.4,0.1,0.6c-0.1-0.2-0.1-0.3-0.2-0.5c0.1,0.2,0.1,0.3,0,0.1c0.1,0.3,0.1,0.6,0.2,0.9c0-0.2,0.1-0.4,0.3-0.5
		c0.2,0.5,0.1,0.3,0.1,0.3c0.3,0.2,0.6,1.9,0.8,2.1c0.2,0.4,1.4,0.6,1.1,0.6c1.7,0.4,3.7-0.7,3.7-2.4c0-0.4-0.4-0.8-0.3-1.3
		c0,0.1,0.1,0.1,0.1,0.2c0-0.3-0.1-0.6-0.2-0.9c-0.4-0.3-1.9-8.3-1.6-9.8c0.1,0.2,0.2,0.6,0.2,0.7c-0.3-0.4-0.5-1.9-0.6-2.4
		c0.1,0.5-0.1-0.8-0.2-1.1c0,0.1,0.1,0.2,0.1,0.3c-0.3-0.5-0.5-2.7-0.4-2.2c-1-2.4-0.7-4.8-1.3-7.4c0.1,0.4,0.3,0.7,0.3,1
		c0-0.6-0.2-1.2-0.3-1.7c0,0.1,0.1,0.2,0.2,0.3c0-0.3,0-0.5,0-0.8c-0.5,0-0.7-2.8-1.1-3.5c-0.6-1.2-3.2-1.7-3.8-0.7
		c-1.3,0.9-0.5,3.8-0.2,5c0-0.1-0.3-0.9-0.3-0.3C-25.9,175.4-26.4,174.6-26.2,175z"/>
	<path fill="#1A171B" d="M-29.4,198.8c-0.6,1.1-1.5,2-2.3,2.9c2.8-2.9-1.7,1.9-2.3,2.6c-0.9,1.1-2.1,2.8-2.4,3.7
		c-1.2,4.5-6.9,7.8-10.5,10.8c0.2-0.1,0.3-0.2,0.5-0.3c-1.5,1.8-3.7,2.9-4.8,5.1c-1.5,2.9,1.3,6.9,4.5,4.8c-0.7,0.5-1.4,0.6-2.2,0.5
		c3.5,0.6,7.7-6.3,9.4-8.8c-0.4,0.6-0.9,1.3-1.4,1.9c1.8-2.2,3.5-4.9,5-6.9c1.8-2.3,3.4-4.6,5.4-6.6c1-1,2.1-2,3.2-2.9
		C-28.4,203.4-29,201.1-29.4,198.8C-29.9,199.6-29,201-29.4,198.8z"/>
	<path fill="#1A171B" d="M37,105c0-0.1,0.3,0.8,0.3,1c-0.1,0-0.1-0.1-0.1-0.2c0,0.3,0.1,0.6,0.2,1c0.4,0.3,1.9,8.3,1.6,9.8
		c-0.1-0.2-0.2-0.6-0.2-0.7c0.3,0.4,0.5,1.9,0.6,2.4c-0.1-0.5,0.1,0.8,0.2,1.1c0-0.1-0.1-0.2-0.1-0.3c0.3,0.5,0.5,2.7,0.4,2.2
		c1,2.4,0.7,4.8,1.3,7.4c-0.1-0.4-0.3-0.7-0.3-1c0,0.6,0.2,1.2,0.3,1.7c0-0.1-0.1-0.2-0.2-0.3c0,0.3,0,0.5,0,0.8
		c-0.7-0.1,3,7.6,4.9,4.1c1.2-0.9,0.4-3.8,0.2-5c0,0.1,0.3,0.9,0.3,0.3c0.1,0.2,0.2,0.5,0.2,0.8c0.1-0.9-0.2-1.2-0.4-2
		c0,0.2,0.1,0.4,0.3,0.4c-0.2-0.8-0.3-0.6-0.4-1.1c0,0.5,0.1,1,0.2,1.5c-0.3-0.5-0.9-2.4-0.7-3.2c0,0.3,0.1,0.5,0.3,0.7
		c-0.1-0.3-0.7-2.8-0.4-2.7c-0.3-0.1-0.2-1.1-0.2-1.3c0.1,0.1-0.2-1.2-0.5-1.7c0.1,0.1,0.1,0.2,0.1,0.4c-0.1-0.1-0.1,0,0.1,0.2
		c0,0.2-0.3-2-0.1-0.7c-0.3-0.5-0.4-1.4-0.4-1.8c0-0.3,0.2,0.4,0.3,0.4c-0.1-0.9-0.5-1.1-0.6-2.1c-0.1-0.8-0.2-1.5-0.2-2.3
		c0.1,0.8-0.2-0.2,0.2,1.2c0.2-0.1,0-1.2-0.2-1.4c0.2,0.1,0.2,0.3,0.2,0.5c0-0.8-0.4-1.3-0.6-2c-0.1,0.3,0,0.4,0.2,0.5
		c0.3-0.7-0.3-1.1-0.4-1.8c0.3,1.6,0.1,0,0.3,0.5c0.1,0.2,0.7,2.1,0.6,2.1c-0.3-0.7,0.2-0.9-0.2-1.5c0,0.7-0.4-1-0.6-1.8
		c-0.1-0.5-0.4-1.2-0.4-1.6c0,0,0.2,0.3,0.2,0.4c0-0.1-0.3-1.2-0.3-1.2c0.1,0.2,0.1,0.4,0.2,0.7c-0.2-1-0.8-1.1-0.2-0.9
		c-0.3-0.9-0.4-1.2-0.4-1.2c-0.1-0.3-0.2-1.4-0.2-1.4c0.1,0.2,0.2,0.2,0.1-0.1c-0.1,1,0.2,0.3,0.3,1.1c-0.1,0-0.1-0.1-0.2-0.1
		c-0.1,0,0.2,0.8,0.3,0.8c0-0.5-0.2-1-0.2-1.5c0.4,0.9-0.3-0.3,0.2,0c0-0.2-0.1-0.4-0.1-0.6c0.1,0.2,0.1,0.3,0.2,0.5
		c-0.1-0.2-0.1-0.3,0-0.1c-0.1-0.3-0.1-0.6-0.2-0.9c0,0.2-0.1,0.4-0.3,0.5c-0.1-0.5-0.1-0.3-0.1-0.3c-0.3-0.2-0.6-1.8-0.9-2.1
		c-0.2-0.4-1.5-0.6-1.1-0.6c-1.2-0.2-2.8,0.2-3.4,1.3C38,101.9,36.7,105.2,37,105C37,104.9,36.9,105,37,105z"/>
	<path fill="#1A171B" d="M-23.2,129.2c-1.3,0.9-2.1,2.3-2.8,3.4c-0.3-0.3,0.2,4.8,0,5.2c-0.1-0.2,0-0.3-0.1-0.4c0,0,0.4,1.2,0.4,1.3
		c0-0.1,0,0.5,0,0.5c0.2,0.2,0.3,1.6,0.2,1.2c0.8,1.4,0,2.6,1,3.8c-0.1-0.1-0.2-0.2-0.3-0.3c0.1,0,0,0-0.1-0.1
		c0,0.3,0.2,0.5,0.4,0.7c-0.1,0.1-0.5,0.1-0.1,0.4c0.2-0.2,1.1,0.3,1.2,0.2c1.2,0.1,1.8-1,2.5-1c-0.2-0.4,0.4-2.1,0.2-3
		c0.1,0.1,0.5,0.2,0.5,0.6c0.1-0.2,0-0.5,0-0.5c-0.2-0.7-0.1,0-0.3-0.4c0.2,0.1,0.2,0,0-0.2c0,0.2,0.1,0.2,0.2,0.2
		c-0.1-0.3-0.3-0.4-0.4-0.6c0,0.3,0,0.6,0.1,0.9c-0.1-0.2-0.7-1.4-0.5-1.8c0,0.2,0.1,0.3,0.2,0.4c-0.2-1.1-0.1-2.6-0.7-3.2
		c0.2,0.2,0.2,0.2,0.1,0.2c-0.1,0.4-0.1-1,0-0.3c-0.3-0.2-0.3-0.8-0.3-1c0.1,0,0.2,0.1,0.2,0.2c0-0.6-0.4-0.6-0.4-1.2
		c0-0.5-0.1-0.8,0-1.3c0.2,0.7-0.3-0.5,0.1,0.7c0,0,0-1.4,0.1-0.6c0-0.5-0.3-0.7-0.4-1.1c0,0.2,0.1,0.3,0.2,0.2c0,0-0.3-0.8-0.3-0.9
		c0.2,0.3,0.2,0.4,0.2,0.2c0,0.1,0.6,1.2,0.6,1.3c-0.1-0.2,0.1-1.2-0.1-0.5c-0.1-0.2-0.8-1.6-0.7-2.2l0.2,0.2c0,0-0.1-0.9-0.2-0.7
		c0.1,0.1,0.1,0.2,0.1,0.4c-0.2-0.6-0.6-0.6-0.1-0.5c-0.3-0.9-0.1-0.3-0.4-0.8C-22.5,128.8-23,129.2-23.2,129.2z"/>
	<path fill="#1A171B" d="M113.6,155.6c-1.7-3.3-5.8-2.3-8.9-2.6c0.1,0,0.6,0.1,0.6,0.1c0,0.6-7.4-1.8-8.2-2.5
		c-1.4-1.4-1.2-3.7-3.1-4.8c1.3,0.8-0.2,0-0.4-0.1c-2.4-1.1-4.2-1.1-4.1-4.2c0.1-2.8-0.4-4.3-1.7-6.8c-0.9-1.8-0.2-3.8,0.3-5.5
		c0.4-1.4-0.4-3.1-0.1-4.2c-0.4-1.4,2.4-2.1,3.4-2.5c1.5-0.6,3.7-1.1,4.5-2.6c1.8-3.1-3.2-4-5.1-3.7c-1.6,0.3-5.2,2.4-6.7,1.1
		c-0.9-0.8-1.2-2.1-2.1-2.9c-0.5-0.5-1.2-0.2-1.6-0.6c-0.6-0.6-0.1-2.3,0.2-2.8c1.5-3.4,5.3-1.3,7-3.8c2.8-4-2-6.6-5.4-5
		c0.3-0.1,0.6-0.3,0.9-0.3c-1,0.6-1.9,0.9-2.8,1.7c1.6-1.3,0.3-0.1,0.3-0.1c-1.2,1-2.4,2.7-4.1,2.9c-2.3,0.4-2.5-1.4-3.5-3.1
		c0.5,1.3,0.5,3.1,0.6,4.5c0,0-0.2-1.1-0.1-0.5c-0.1-0.5-0.2-1-0.2-1.6c-0.3,0.2,0.1,2.1,0.3,2.5c-0.2-0.2-0.3-0.5-0.3-0.9
		c0.1,1.2,0.6,2.4,0.8,3.6c-0.1,0-0.2-0.9-0.2-0.8c-0.2,1.1,0.4,2,0.6,3c-0.1-0.3-0.2-0.6-0.3-0.9c0.1,0.4,0.1,0.4-0.1,0
		c0.1,0.5-0.4-1.9-0.3-1.4c0,0.1,0,0.2,0,0.3c0-0.6-0.7-2.3-0.6-2.6c0.4,1.1-0.1,1.5,0.3,2.6c0-0.3,0-0.6,0-0.9
		c0.3,0.9,1.4,2.7,0.3,1.5c0.4,1.7,1,3.5,1.1,5.3c0-0.2-0.2-0.5-0.3-0.7c0.1,0.4,0.4,1.8,0.4,2.2c-0.1-0.4-0.2-0.8-0.2-1.2
		c0.2,0.8,0.7,1.7,0.6,2.6c-0.1-0.3-0.2-0.7-0.3-1c0.2,0.6,0.3,1.2,0.4,1.8c0-0.1,0-0.2,0-0.3c0.1,0.3,0.1,0.7,0.2,1
		c0-0.1,0-0.3-0.1-0.4c0.2,0.8,0.2,1.4,0.3,2.1c0-0.1,0.4-0.1,0.1,0.3c-0.1-0.1-0.1-0.2-0.2-0.3c0,0.1,0,0.2,0,0.3
		c0-0.4-0.1-0.9-0.3-1.3c0.1,0.9-0.2-0.6-0.2-0.7c0.1,0.1,0.1,0.1,0.2,0.3c0.1,0-0.2-1.3-0.4-1.4c0,0.9,0.3,1.7,0.4,2.6
		c-0.6-1.8,0.6,0.9-0.2,0c0.1,0.3,0.1,0.7,0.2,1c-0.1-0.3-0.2-0.6-0.3-0.9c0.1,0.4,0.1,0.4,0,0.2c0,0.5,0.2,1,0.2,1.5
		c0-0.3,0.1-0.6,0.2-0.9c0.3,1,0.1,0.5,0.2,0.6c1.2,1.5,0.1,5.8-0.3,7.4c0.2-1.3-0.9,2.2-1.3,2.8c-0.9,1.4-2.2,2.4-3.7,3
		c-1,0.4-2.2,1.2-3.5,1c0.1-0.1,0.2-0.1,0.4-0.1c-0.6,0-1.2,0.1-1.8,0.1c0.2,0,0.3,0,0.5-0.1c-2.9,1.4-6.7-2.4-7.9-4.5
		c-1.1-2.2-2.5-5.5-2.3-8.3c0.1,0.4,0.2,1,0.3,1.2c-0.5-1.2-0.6-2.9-0.9-4.2c0.1,0.1,0.1,0.3,0.2,0.4c-0.2-0.8-0.4-1.6-0.5-2.4
		c0,0.2,0.1,0.4,0.2,0.5c-0.2-0.5-0.7-2.6-0.5-3.1c0.2,0.9-0.3-1.5-0.1-1.1c-0.2,0-0.2,0.2,0,0.5c-1.3-4.3-1.3-8.3-2.2-12.8
		c0.1,0.7,0.3,1.1,0.4,1.6c-0.1-1-0.3-2-0.5-3c0,0.2,0.1,0.3,0.3,0.5c-0.1-0.5,0-0.9-0.1-1.4c-0.1,0.1-0.2,0.2-0.1,0.4
		c0.4-3-1.3-5.8-1.3-8.8c0-3,0.7-6.4,3.3-8.5c0.5-0.6,3.1-1.7,4.8-2.1c1-0.2,2.2-6.6,2.7-7.8c1.4-3.7,3.3-7.3,5.3-10.8
		c2.1-3.5,5.2-6.9,6.6-10.8c0.9-2.4,0.4-5.5-1.9-6.9c-3.1-2-4.5,1.8-5.4,4.1c-2.9,7.9-5.4,15.5-9.5,22.9c-1.8,3.3-3.6,6.9-6,9.8
		c-2.8,3.2-4.6,1.7-7.8,0.3c-2.4-1.1-5.8-1-5.1-4.6c0.6-3.3-3.3-1.3-3.4-3.2c-0.1-1,1.1-1.6,1.2-2.6c0.1-1.1-0.5-2.2-1.3-2.9
		c-1.7-1.5-4.8-2.1-5.3,0.6c-0.3,1.8,0.1,3.6-0.2,5.3c-0.5,2.6-2.6-0.5-2.5-0.3c-0.3-1.6,0.4-4.5-2.2-4.3c0,0,1.5,0,1.5,0.3
		c-0.3-1.8-3.6,0.4-4,0.9c-0.4,1.4-1,2.8-1.4,4.2c0.6-2,1.1-4.9,3.4-5.5c-2.7,0.9-3,4.6-3.8,7c0.3-0.8-0.4,1.2-0.6,1.4
		c-0.8,1.1-2.5,1.5-3.7,1.8c-3.8,0.6-4.8-1.2-4.3-4.8c0.3-2,0.1-7.2-3.5-5.2c-0.8,0.5-1.1,1.4-1,2.3c0.2,2.5,4,6.9,1.3,9.1
		c-1.8,1.4-6.7,0.6-8.6-0.2c1,0.5,2.3,0.5,3.4,0.6c-0.3-0.2-0.6-0.2-1-0.1C4,84.1,8.5,85,8.6,81.5c0.1-2.3-2.1-4.3-2.1-6.7
		c0.1,1.7,1,3.3,1.7,4.8c-0.8-1.7-2.2-4.1-1.6-6.1c0.6-1.9,3.2-2.1,4.4-0.7c-0.9-1.2-3-1.5-4-0.3c1.8-2.1,4.7,0,4.8,2.2
		c0.1,2.1-1.8,6.5,1.3,7.2c-1.8-0.5-1.7-1.8-1.5-3.4c-0.2,1.2,0.1-1.4,0.1-1.5c0.2-1.3,0.4-2.9-0.4-4.1c-0.6-0.8-1.6-1.3-2.6-1.3
		c-0.2,0-2.6,0.6-0.7,0.2C3.2,73,9,79.8,8.2,82.1c0-0.1,0.1-0.2,0.1-0.3C8.2,83.2,7,84,5.7,84c0.3,0,1.5-0.2,2.1-0.7
		c-2.1,2.5-9.5,0.6-10.1-2.4c0,0.1,0.3,0.8,0.2,0.9c0.6-0.7-0.3-6.2-0.6-7.2c0.2,0.9,0.4,1.7,0.5,2.6C-2.3,75-3.3,70.5-6.4,71
		c-2.4,0.4-3.3,3.9-2.5,5.9c0.4,1.1,0.8,4,1.6,4.7c0.6,0.5,0.7,1,0.8,1.8c0-0.2-0.1-0.4-0.1-0.6c0.4,1.4,0.1,4.7-2,4.8
		c-0.9,0.1-1.9-1.7-3.4-1.4c-2.4,0.4-3.3,2-5.3-0.3c-1.2-1.4-2.7-2.8-4.7-2.1c-2.1,0.7-2.4,3.1-1.8,4.9c0.4,1.4,1.9,1.4,2.3,2.5
		c0.6,1.6,2.3,2.4,0.3,3.9c-3.5,2.6-7.5-2.9-9.7-5.2c-2.9-3.3-5.9-7-10.8-6.7c-6.6,0.3-3.6,6.5-0.8,9.4c1.3,1.3,8.2,7.1,9.3,6.5
		c-0.7-0.6-1.6-1.1-2.2-1.8c0.8,0.6,1.5,1.2,2.3,1.8c0.7-0.4,1.7-1,2.6-1c1.2-0.6,1.7-0.4,3.4-0.4c3.5,0,4.8,1.8,7,4.1
		c0.4,0.4,1.4,2.9,1.8,4.2c-0.1-0.3-0.9-2.1-0.5-0.7c-0.3-0.6-0.5-1.1-0.8-1.7c0.3,0.7,0.6,1.4,0.8,2.2c0-0.1-0.1-0.2-0.1-0.3
		c0.5,1.3,0.6,1.6,0.9,2.8c-0.1-0.4-0.2-0.7-0.4-1.1c0.1,0.1,0.3,2.1,0.5,2.2c-0.1-0.7,0.2,0.4,0.2,0.6c0-1.2-0.5-2.4-0.7-3.6
		c0.8,1.5,1.6,5.5,1.6,7.6c0-0.1-0.4-1.8-0.4-1.7c0.2,1.2,0.3,5.7,1.2,6.6c0-0.1-0.1-0.2-0.2-0.3c-0.2,0.3,0.4,2.1,0.5,2.4
		c0.2-0.6,0,0.7,0,0.8c0.1-0.2,0.1-0.4,0-0.6c0.6,1.5,0.3,3.1,0.8,4.6c0.1-0.2-0.3-1.2-0.3-1.5c0.1,0.9,0.2,1.8,0.4,2.7
		c0-0.4-0.1-0.7-0.2-1.1c0.5,1.3,0.5,2.7,0.7,4c-0.1-0.7,0.1,0.4,0.1,0.5c-0.1-0.2-0.3-1-0.3-1.1c0.1,0.4,0.5,2,0.5,1.6
		c0,0,0.2,2,0,1.3c0.5,2.5,1,5,1.2,7.5c0,0-0.3-1.5-0.2-0.7c-0.1-0.7-0.2-1.4-0.3-2.1c-0.3,0.4,0.3,2.8,0.5,3.4
		c-0.2-0.4-0.3-0.7-0.3-1.2c0.2,1.7,0.7,3.2,1,4.9c-0.1-0.1-0.3-1.1-0.3-1.1c-0.1,1.5,0.5,2.7,0.8,4.1c-0.1-0.4-0.2-0.8-0.3-1.2
		c0,0.1,0,0.2,0.1,0.4c-0.1-0.1-0.1-0.2-0.2-0.3c0.1,0.6-0.5-2.6-0.4-1.9c0,0.1,0,0.3,0,0.4c0-0.9-0.9-2.8-0.7-3.6
		c0.2,0.5,0.5,1.5,0.2,1.6c0.1,0.7,0.2,1.3,0.3,2c0-0.4-0.1-0.9-0.1-1.3c0.3,1,0.5,2.1,0.6,3.1c0-0.4-0.1-0.7-0.3-1
		c0.4,2.2,2.6,6.6-1.2,6.5c0.4,0,0.8-0.2,1.1-0.3c-0.7,0.2-2.2,0.5-3,0.6c0.5-0.1,1.1-0.2,1.6-0.3c-1.1,0.2-2.3,0.8-3.5,0.8
		c0.5-0.1,0.9-0.2,1.3-0.4c-0.8,0.2-1.6,0.4-2.5,0.5c0.1,0,0.3,0,0.4,0c-0.5,0.1-0.9,0.2-1.4,0.3c0.2,0,0.4-0.1,0.5-0.1
		c-1,0.3-1.9,0.2-2.9,0.4c0.4,0-0.3,0.2-0.5,0.1c0.1-0.1,0.2-0.2,0.4-0.2c-0.2,0-0.3,0.1-0.5,0c0.6,0,1.2-0.2,1.8-0.4
		c-1.1,0.2,0.6-0.2,0.9-0.2c0,0-0.2,0.2-0.3,0.2c0.2,0,1.7-0.2,1.8-0.4c-1.2,0.1-2.4,0.4-3.6,0.5c2.4-0.7-1.3,0.7,0-0.2
		c-0.4,0.1-0.9,0.2-1.3,0.2c0.4-0.1,0.8-0.2,1.2-0.3c-0.6,0-1.4,0.3-2.4,0.3c0.4,0,0.8,0.1,1.2,0.3c-0.4,0.1-0.8,0.1-1.1,0.2
		c0.1,0.1,0.2,0.1,0.3,0c-1.9,0.7-4.5-1.3-5.6-2.7c-0.6-0.7-1.3-2.2-1.9-3.5c1,2.2-0.5-1.7-0.5-1.7c-0.4-1.3-0.7-2.7-0.9-4.1
		c-0.3-2-0.8-4-0.9-6.1c-0.1-0.6-0.1-2,0.2-3.4c0,0.2-0.1,0.4-0.1,0.6c0.2-0.8,0.5-1.5,0.7-2.3c-0.1,0.2-0.1,0.4-0.2,0.7
		c0.1-3,4.9-6.6,6.9-8.7c1.6-1.6,2.3-1.7,1.9-4c-0.4-2.3-1.1-4.8-1-7.2c0.1,0.5,0.3,1.3,0.4,1.7c-0.3-0.8-0.4-2.4-0.6-3.1
		c-0.2-0.6-1-2.9-0.4-1.9c-0.2-0.4-0.3-0.5-0.2-0.4c-0.3-0.5-0.8-0.8-1.2-1.1c-1.3-0.4,0.1,0,0.1,0c-1.4-0.3-1.9,0.2-2.8,1
		c0.2-0.6-0.1,1.3-0.2,1.4c0-0.2,0-0.5,0-0.7c0,3.9,0.9,7.3,1.5,10.9c0.4,2.2-4.4,2.2-6,2.4c0.9-0.2,1.5-0.4,2.2-0.5
		c-1.6,0.1-4,1.3-3.9-1.4c0.1,0,0.3,0.8,0.3,0.7c-0.1-0.7-0.1-1.2-0.2-1.9c-0.2,0.1-0.2,0.3-0.1,0.5c0.1-1.9-0.9-4.3-1.2-6.3
		c-1.9-1.2-4-4-7-3.5c1.3-0.4,2.8,0.4,3.9,1c-2.9-1.6-5.9-1.2-7,2.4c-1.2,4.2,1.3,4.9,4.4,6.5c0.9,0.5,1.5,1.3,1.5,2.4
		c-0.1,1.7-2.7,1-3.7,0.9c-1.2-0.2-2.4,0.2-3.4,0.8c-0.5,0.3-1,0.7-1.4,1.2c-0.1,0.1-1.7,3.2-1,1.6c-0.5,1.2-0.6,2.9,0.4,4
		c-0.6-0.7-0.8-1.7-0.7-2.6c-0.2,2.1,1,2.6,2.4,4c1.7,1.6-0.9,2.4-0.7,3.8c0.2-0.2,0.5-0.5,0.6-0.7c-1.9,3.1-3.5,3-6.8,2.7
		c-2.1-0.2-5.2,1.2-3.4,3.8c1.2,1.7,4.5,1.1,6.2,1.4c4.5,0.7,2.6,3.6-0.7,4.2c-3.6,0.7-9.1,1.9-12.7,1.1c0.3,0.1,1.9-0.2,2-0.2
		c-4.6,0.3-9.4,0.5-13.9,1.4c0.1,0,0.2-0.1,0.3-0.1c-1.5,0.3-4.8,0.8-4.3,3c0.5,2.1,2.5,2.8,4.4,2.8c4.9-0.2,10.1-2.2,14.9-2.9
		c3.1-0.5,6.2-0.9,9.4-1.1c3.4-0.2,2.9-0.4,2.7,1.7c-0.1,1,1,1.5,1.6,2c1.4,1,1,2.2,0.1,3.3c0,0-2.1,3.1-1.5,2
		c-0.9,1.4,1.5,3.7,0,5.8c-0.6,0.9-0.8,1.8-1.2,2.7c0.1-0.3,0.2-0.6,0.3-0.9c-0.5,2.2-4,1.8-5.8,2.6c-3.1,1.4-4.2,7.3,0.3,7.6
		c-0.4,0-0.7-0.1-1.1-0.3c1.1,0.4,2.4,0.6,3.5,0.4c-0.7,0.1-1.5,0.1-2.2,0.1c2.4,0.3,6.1-1.5,7.8,0.8c0.9,2.5,1.2,8.3,4.5,9.1
		c-1.1-0.3-1.6-1-2.2-2c3,5,6.2-1.6,10-0.5c2.8,1.9,3.9,4.9,6.5,7c-0.8-3.2-1.3-6.4-1.7-9.8c-0.3-2.3-1.5-5.6-1-8.4
		c0,0.4,0.1,1.1,0.2,1.4c-0.4-1.3-0.3-3.4-0.2-4.8c0,0.2,0,0.3,0.1,0.5c0-0.9,0.1-1.8,0.3-2.7c0,0.2-0.1,0.4-0.1,0.6
		c0-0.7,0.7-3,1.5-3.4c-0.4,0.7,1.1-1.1,1.1-1.1c-0.2,0.1-0.4,0.3-0.6,0.5c1.9-2.5,6.3-2.5,8.7-1.4c-0.1-0.8-0.3-1.6-0.4-2.3
		c0.2,0.7,0.3,1.2,0.4,1.8c-0.1-1.1-0.3-2.2-0.6-3.3c0.1,0,0.2,0.7,0.3,0.5c-0.1-0.5,0-1-0.1-1.5c-0.1,0.1-0.2,0.2-0.1,0.4
		c0.3-3.4-2-4,2.3-4.7c0.2,0,4.4-1.4,4.7,0.2c0.6,3.1,1,5.8,1.5,9.1c0-0.1-0.1-0.2-0.1-0.3c0.3,2.2,0.4,5.8,1.3,7.9
		c0.1,0.2,0.4,2.7,0.6,3.5c-0.1-0.2-0.5-1.7-0.4-0.6c-0.1-0.5-0.2-0.9-0.3-1.4c0.1,0.6,0.2,1.2,0.3,1.8c0-0.1,0.3,1.5,0.4,2
		c-0.1-0.3-0.2-0.6-0.3-0.9c0.5,1.2,0.4,1.4,0.6,2.2c0-1-0.4-1.9-0.4-2.9c-0.1-0.2,0.2,0.6,0.1,0.2c0.3,1.8,1.1,4,1.1,5.9
		c-0.1-0.5-0.2-1-0.4-1.4c0.1,0.9,0.8,5,0.8,5c0.2,0.2,0.4,1.6,0.4,1.9c0.1-0.4,0,0.5,0,0.6c0.1-0.1,0.1-0.3,0-0.5
		c0.5,1.2,0.2,2.5,0.7,3.7c0.1-0.1-0.3-1-0.3-1.2c0.1,0.7,0.1,1.5,0.4,2.2c0-0.3-0.1-0.6-0.2-0.8c0.5,1,0.4,2.2,0.6,3.3
		c0-0.6,0.1,0.3,0.1,0.4c0-0.1-0.3-0.8-0.3-0.9c0,0.1,0.5,1.7,0.4,1.3c-0.3-2.7,0.4,2.1,0,1c0.4,2.1,0.9,4,1,6c0,0-0.2-1.2-0.1-0.6
		c-0.1-0.6-0.2-1.1-0.3-1.7c-0.3,0.3,0.2,2.3,0.4,2.7c-0.2-0.3-0.3-0.6-0.3-0.9c0.1,1.4,0.6,2.6,0.9,3.9c-0.1-0.1-0.2-0.9-0.2-0.9
		c-0.2,1.2,0.4,2.2,0.6,3.3c-0.1-0.3-0.2-0.7-0.3-1c0,0.1,0,0.2,0,0.3c0-0.1-0.1-0.2-0.1-0.3c0.1,0.5-0.4-2.1-0.3-1.6
		c0,0.1,0,0.2,0,0.3c0-0.7-0.8-2.4-0.6-2.9c0.4,1.2-0.1,1.7,0.4,2.9c0-0.3,0-0.7,0-1c0.2,0.8,0.4,1.7,0.5,2.5c0-0.3-0.1-0.6-0.2-0.8
		c0.2,0.9,1,2.2-0.4,2.4c0.8,1.5,4,1.9,3.8,3.6c0.2,1.3-2.1,4.3-2.7,5.4c-1.3,2.5-2.7,5.1-3.7,7.7c-0.5,1.3-2,5.3,0.7,5.2
		c2.9-0.1,4.2-5.1,4.9-7.3c1.3-3.7,2.4-11.7,7.1-11.7c-0.1,0-0.2,0-0.3,0c3.1-0.1,3,3.2,6.6,2.2c1.9-0.6,1.6-0.1,1.8,1.4
		c0.1,0.5,1.6,1.5,0.6,0.9c3.9,2.8-2.8,12.5,3,14.1c4.6,1.3,2.9-5.9,2.9-8.2c0-1.7,1.2-3.6,2.9-3.9c1.3-0.3,2.3,1.2,3.9,0.6
		c3.1-1.1,3.7-6.3,8.2-5.7c-0.2,0-0.5,0-0.7,0c3.6-0.4,3.4,5.9,3.5,8.2c0.2,3.9-0.1,8.5,1.9,12c1.1,2.1,4.9,4.7,7.2,2.6
		c2.1-1.8,0.8-6.2,0.3-8.5c0.3,1.3,0.4,2.7,0.6,4c-0.1-0.5-0.7-3.7-0.3-1.5c-0.4-2.3-1.1-4.5-1.5-6.7c0.1,0.8,0.5,1.6,0.6,2.3
		c-1.2-3.3-4.8-12.6-0.2-14.9c2.8-1.4,5,1.9,6,4.1c1.4,3.1,1.8,6.2,5.4,7.5c2.4,0.9,6,0.6,6.8-2.4c1-3.8-2.3-5.7-3.3-8.9
		c-1-3,1.8-6,4.8-5.3c2,0.6,3.2,3.1,4.3,4.7c-0.4-0.6-0.7-1.2-1.1-1.8c1.1,1.6,3,5.1,5.3,5.2c-1.3-0.2-2.2-0.9-3-1.9
		c0.9,1,3.2,2.9,4.7,1.9c2.2-1.4-0.4-4.2-1.2-5.6c0.8,1.3,2.1,2.3,2.2,3.9c0-1.4-1.1-2.7-1.9-3.8c1.5,2-0.8-0.9-1-1.1
		c-0.7-0.8-1.4-1.5-2.1-2.3c-1.2-1.3-1.1-3.3-0.2-4.8c2-3,5.5-4.4,7.8-1c-0.6-0.9-1.1-1.6-2.1-2c1.6,0.6,2.6,2.3,3.4,3.6
		c-0.3-0.4-0.5-0.8-0.8-1.2c1.2,1.9,5.4,5.5,7.1,1.8c1.3-2.4-1.7-5.1-3.3-6.5c-0.9-0.8-3.1-2.4-2.9-3.9c0.4-0.5,0.9-1,1.5-1.3
		c-0.1-0.8-0.3-1.6-0.4-2.4c-0.3-2.6-0.5-4.6-1.1-7.5c0.1,0.3,0.1,0.7,0.2,1c-0.5-3.6-1.1-7.3-1.7-11c-0.3-2-1.1-6-1.2-6.6
		c-0.2-1.2-0.5-2.5-0.7-3.7c0,0.2,0.1,0.5,0.2,0.7c0-1-0.4-2-0.5-3c0.1,0.1,0.3,0.8,0.2,0.9c0.6-1.4-1.3-7.1-1.8-9
		c-0.8-1.4-3.2-1.7-4.2-0.4c-0.6,0.8-0.4,3-0.4,3.2c1.4,3.3,1.8,8.7,1.9,12.3c-0.1-0.8-0.2-1.6-0.4-2.3c0.8,2.5,0.9,5,1.4,7.6
		c-0.1-0.2-0.1-0.5-0.2-0.7c0.2,1.4,0.6,2.8,0.8,4.3c0,0-0.3-0.9-0.2-1c0.4,1.3,1.2,4.2,0.9,5.6c-0.2-1.1,0.4,1.9,0.4,2.3
		c0-0.4-0.1-0.7-0.1-1.1c1.4,6,1.4,10.5,2.6,16c0.1,0.6-8.2,3.9-7.8,0.1c0.4,2.3,1.6,1.5,3.2,1.3c-3.4,0.3-2.9-0.4-3.5-3.5
		c0.1,0,0.3,1.1,0.3,0.9c-0.1-0.8-0.1-1.7-0.3-2.5c-0.2,0.2-0.2,0.4,0,0.6c0-2.1-0.9-4.6-1.3-6.7c-0.6-3.1-0.9-5.7-1.6-9.6
		c-0.8-5-1.6-9.7-2.4-14.9c0,0.2,0.1,0.3,0.1,0.5c-0.6-4.1-0.9-9.2-2.2-13.2c-0.1-0.4-1.1-4.4-0.9-5.8c0,0.4,0.6,2.9,0.4,1
		c0.1,0.8,0.4,1.6,0.5,2.4c0-1-0.3-2-0.5-3c0,0.2,0.1,0.3,0.1,0.5c-0.2-1,0.7-1.7,1.3-1.5c0.4,0.2,1.5-0.2,2-0.3
		c-0.5,0.1-1.1,0.2-1.6,0.4c0.2-0.1,2.9-0.2,2.9-0.6c-1,0.2,0.6-0.2,0.8-0.3c-1.6,0.1-3.2,0.6-4.8,0.7c2.2-0.7,7.3-1.9,10.2-1.8
		c-0.1,0-2.5,0.4-2.4,0.5c1.6-0.2,3.1-0.5,4.7-0.3c1.9,0.2,2.8,1.7,4.4,2.1c-0.1-0.1-0.3-0.2-0.5-0.3c0.5,0.9,1.8,1.6,2.3,2.6
		c-0.1-0.1-0.1-0.2-0.2-0.3c0.1,0,0.8,1.6,0.7,1.3c0-0.3-0.1-0.5-0.3-0.7c1.4,1.7,1.6,4.1,2.2,6.1c0.1-0.3-0.5-1.7-0.6-2
		c0.3,1.2,0.4,2.4,0.8,3.6c-0.1-0.5-0.2-1-0.3-1.4c0.6,1.7,0.7,3.6,0.9,5.4c-0.1-0.9,0.3,0.6,0.1,0.7c0.1,0-0.4-1.4-0.4-1.5
		c0,0.1,0.4,2.2,0.4,2.2c0-0.4,0.2,0.7,0.1-0.1c0,0,0.3,2.7,0.1,1.7c0.6,3.4,1.3,6.6,1.6,10.1c-0.1-0.4-0.1-0.8-0.2-1.3
		c-0.1,0.1-0.1,0.2,0,0.3c-0.1-0.9-0.3-1.9-0.5-2.8c-0.4,0.6,0.4,3.7,0.7,4.5c0-0.1-0.4-1.5-0.4-1.6c0.3,2.2,0.9,4.3,1.3,6.5
		c-0.2-0.2-0.4-1.4-0.3-1.6c-0.6,1.5,0.7,4.1,1,5.6c-0.1-0.6-0.3-1.1-0.4-1.6c0,0.2,0.1,0.3,0.1,0.5c-0.3-0.9-0.4-2-0.6-3
		c0,0.2,0,0.4,0,0.5c-0.1-1.4-0.2-3.5-0.9-4.8c0.2,0.4,0.3,2.1,0.2,2.1c0.2,0.9,0.1,1.8,0.4,2.6c-0.1-0.6-0.1-1.1-0.2-1.7
		c0.3,1.4,0.6,2.8,0.8,4.2c-0.1-0.5-0.2-0.9-0.3-1.4c0.2,0.9,0.2,2.4,0.7,2.8c2.4,1.7,5.2,1.6,7.7,0c-0.2,0.2-0.5,0.3-0.8,0.3
		c2.2-1.5,3.5-3.4,3.8-6.1c0.3-3-6.8-5.5-6.3-6.7c0,0.1,0,0.1,0,0.1c0-0.5,0.9-1.1,1.1-1.3c1.1-1.2,0.2-2.6-0.4-3.7
		c-0.6-1.1-1.4-3.1,0.1-3.9c-0.3,0.2-0.5,0.5-0.7,0.8c2.3-3.8,8.4-2.5,11.7-1.2c2.6,1,5.1,2.7,7.8,3.2
		C112.3,161.3,115.3,159,113.6,155.6C113.2,154.9,114,156.4,113.6,155.6z M-37.6,84.6c-1.4-0.6-3-1-4.5-0.7c1.7-0.3,3.7,0.1,5.1,1.1
		C-37.2,84.8-37.4,84.7-37.6,84.6C-39.3,84-37.4,84.7-37.6,84.6z M-21.1,95L-21.1,95L-21.1,95z M-21.1,95L-21.1,95L-21.1,95z
		 M-68.9,147.7c1.5-0.1,3-0.3,4.5-0.4c-0.3,0.1-0.3,0.1,0.1,0.2C-65.8,147.5-67.4,147.6-68.9,147.7
		C-67.4,147.6-67.4,147.6-68.9,147.7z M-50.9,144.4c0-0.2,0-0.4-0.1-0.6C-50.9,144-50.9,144.2-50.9,144.4L-50.9,144.4z M-47.2,185
		c-0.9-1.6-1.1-4.3-2-5.7c0.1,0.5,0.3,1,0.4,1.4c-0.2-0.8-0.7-2-0.7-2.8c0.3,0.6,1.1,4.8,0.7,2.8c0.4,1.9,1.4,4.4,2.8,5.8
		C-46.5,186.1-46.9,185.5-47.2,185C-47.5,184.4-46.9,185.5-47.2,185z M-37.3,184.5L-37.3,184.5C-37.3,184.4-37.3,184.6-37.3,184.5z
		 M-43.9,122.6c1.7,0,2.5-1.3,1.7-2.9c-0.8-1.4-2.7-1.6-4-2.2c-2.8-1.4-2.2-6,0-7.8c-2.4,2.2-2.4,6.6,0.8,7.9
		c1.2,0.5,2.8,0.8,3.4,2.1C-41.3,121.3-42.1,122.7-43.9,122.6C-43.7,122.6-42.7,122.7-43.9,122.6z M69.2,198.7
		c0.9-1.1-0.9,1.4-0.8,1.2C68.7,199.4,68.9,199,69.2,198.7C69.4,198.4,69,198.9,69.2,198.7z M27.1,78C27.1,78,27,77.9,27.1,78
		L27.1,78z M26.5,82.6c1-0.3,2.1-0.4,3.2-0.6c-0.8,0.2-1.3,0.4-2,0.4c1.2-0.1,2.4-0.3,3.6-0.6c0,0.1-0.7,0.3-0.6,0.3
		c0.6-0.1,1.1,0,1.7-0.2c-0.1-0.1-0.2-0.2-0.4-0.1c2.3,0.2,1.8,2,2.2,4.5c0.3,1.6,2.3,7.5,1.6,9.6c0.7-0.5,1.4-0.9,2.2-1.2
		c2.5-1.3,5.7-0.5,8.7,1.7c0.4,0.3,1.6,2.4,2.1,3.5c-0.1-0.2-1-1.8-0.5-0.5c-0.3-0.5-0.6-1-0.9-1.4c0.3,0.6,0.7,1.2,0.9,1.9
		c0-0.1-0.1-0.2-0.1-0.3c0.6,1.1,0.6,1.3,1,2.4c-0.1-0.3-0.3-0.6-0.4-0.9c-0.1-0.2,0.5,1.9,0.6,1.8c-0.2-0.6,0.2,0.4,0.3,0.5
		c-0.1-1.1-0.7-2.1-0.9-3.1c-0.1-0.2,0.3,0.6,0.2,0.2c0.8,1.7,1.7,4.5,1.7,6.4c0-0.1-0.3-1.6-0.4-1.5c0.2,1,0.3,5.1,1,5.8
		c0-0.1-0.1-0.2-0.2-0.3c-0.1,0.2,0.4,1.8,0.4,2.1c0.2-0.5,0,0.5,0,0.7c0.1-0.2,0.1-0.3,0-0.5c0.6,1.3,0.3,2.7,0.7,4
		c0.1-0.1-0.3-1.1-0.3-1.3c0.1,0.8,0.1,1.6,0.4,2.4c0-0.3-0.1-0.6-0.2-0.9c0.5,1.1,0.5,2.4,0.6,3.5c-0.1-0.6,0.1,0.4,0.1,0.4
		c-0.1-0.1-0.3-0.9-0.3-0.9c0,0.1,0.5,1.9,0.4,1.4c-0.3-3.1,0.4,2.3,0,1.1c0.4,2.3,1,4.4,1,6.6c-0.1-1-0.1-1.2-0.4-2.5
		c-0.3,0.3,0.2,2.6,0.3,3c-0.2-0.3-0.3-0.7-0.3-1.1c0.1,1.5,0.5,2.9,0.4,4.5c-0.1-0.1-0.1-1-0.1-1c-0.3,1.2-0.1,2.5-0.3,3.7
		c0.1-0.4,0.1-0.7,0.1-1.1c0,0.1,0,0.2-0.1,0.3c0-0.1,0-0.2,0-0.3c0,0.1,0.1-1.8,0.1-1.8c0,0.1-0.1,0.2-0.1,0.4
		c0.2-0.9-0.4-2.6-0.2-3.2c0.3,1.4-0.3,1.8,0,3.2c0-0.4,0.1-0.8,0.2-1.1c0.1,0.9,0.1,1.9-0.1,2.8c0.1-0.3,0.1-0.6,0-1
		c-0.1,1.8-0.7,5.2-2.8,6.2c0.3-0.2,0.5-0.6,0.8-0.8c-0.6,0.8-1.6,1-2.4,1.6c0.1-0.1,1.3-0.6,1.4-0.7c-0.9,0.6-1.9,1.3-3.1,1.3
		c0.3-0.1,1-0.1,1.2-0.4c-0.7,0.2-1.5,0.4-2.2,0.5c0.1,0,0.2,0,0.4,0c-0.4,0.1-0.8,0.1-1.2,0.2c0.2,0,0.3-0.1,0.5-0.1
		c-0.9,0.3-1.6,0.2-2.5,0.4c0.3,0-0.2,0.2-0.4,0.1c0.1-0.1,0.2-0.2,0.3-0.2c-0.1,0-0.3,0.1-0.4,0c0.5,0,1-0.1,1.5-0.3
		c-1,0.2,0.6-0.2,0.8-0.2c0,0-0.2,0.2-0.3,0.2c0.2,0,1.5-0.2,1.6-0.4c-1.1,0.1-2.1,0.3-3.1,0.4c2-0.6-1.1,0.7,0-0.2
		c-0.4,0.1-0.8,0.1-1.2,0.2c0.4-0.1,0.7-0.2,1.1-0.3c-0.5,0-1.3,0.2-2.1,0.3c0.4,0,0.7,0,1,0.2c-0.3,0-0.6,0.1-0.9,0.2
		c-0.3,0.3-3.8,0.5-5,0.7c-0.9,0-0.8-2.3-1.1-3.4c0.1,0.2,0.1,0.4,0.2,0.7c-0.7-5-1.5-9.9-2.5-14.1c0,0.2,0.1,0.3,0.1,0.5
		c-0.1-0.7-0.2-1.3-0.3-2c0.1,0.2,0.1,0.4,0.2,0.6c-1.5-2.4-1.5-7.9-2-10.7c-0.4-3.1-1.6-6.5-1.5-10c0.1,0.4,0.2,1.2,0.3,1.5
		c-0.6-1.5-0.7-3.4-1-5c0.1,0.2,0.1,0.3,0.2,0.5c-0.2-0.9-0.5-1.9-0.6-2.8c0,0.2,0.1,0.4,0.2,0.6c-0.2-0.7-0.9-3-0.6-3.7
		c0.2,0.8-0.2-1.6-0.2-1.5c0,0.2,0,0.5,0.1,0.7C27.8,94.9,25.2,82.8,26.5,82.6z M20.5,77.4c0.4-1.6,0.8-3.8,2.4-4.8
		c-2,1.2-2.2,4.3-2.8,6.3C20.3,78.4,20.4,77.9,20.5,77.4C20.7,76.6,20.4,78,20.5,77.4z M19.6,80.2C19.5,80.3,19.4,80.7,19.6,80.2
		C19.6,80.2,19.6,80.3,19.6,80.2z M5.3,92.2c0.6-0.1,3.7-0.7,0.8,0c1.5-0.1,2.9-0.6,4.4-0.9c2.1-0.4,1.9,0.5,2.3,2.3
		c0-0.1,0-0.2,0-0.3c0.3,1.7,0.6,3.5,0.8,5.2c-0.3-1-0.1,0.8,0,1c-0.1-0.3-0.2-0.6-0.3-0.8c0.1,0.1,0.3,1.6,0.3,1.5
		c-0.1-0.5,0.1,0.8,0.1,0.9c0-0.2,0-0.3,0-0.5c0.1,0.5,0.1,2.2,0.6,2.5c-0.1-0.1-0.1-1.2-0.1-1.4c0.4,1.8,0.5,3.6,0.8,5.3
		c0,0.4,0.3,1.9,0.2,1.1c0,0.2,0.3,3.2,0.1,2.1c0.2,1.2,0.5,2.4,0.7,3.6c0-0.1,0-0.1,0.1-0.1c0-0.3-0.1-1-0.2-1.2
		c0.1,0.4,0.1,0.4,0.1,0c0.1,0.9,0.2,1.7,0.3,2.5c-0.1-0.3-0.2-0.7-0.2-1c0.4,0.6-0.1,3.2,1.3,3.3c0.9,0.1,4,0.4,3.6-2.3
		c0,0.1,0,0.3,0.1,0.4c0.1,0,0-2-0.1-2c-0.1,0-0.9-6.3-0.9-6.2c-0.1-1.1-0.5-2.2-0.5-3.3c0,0.2,0.1,0.4,0.1,0.6
		c-0.2-0.9-0.2-1.6-0.3-2.3c0.7,1.8,0.2,0.7,0.2,0c0,0.2,0.1,0.3,0.1,0.5c-0.2-1.1-0.3-1.5-0.3-0.6c-0.2-0.7-0.2-1.3-0.4-2.2
		c0.1,0.4-0.4-2-0.4-2.6c-0.1-0.2-0.2-3.6-0.5-4.9c-0.1-1.8,0.1-1.7,2.2-1.9c-1.4,0.2,1.2-0.2,1.5-0.3c1,0.8,1.7-1.1,2.7,0.7
		c-0.2-0.4,0.1-1.1-0.5-1c0.4,0.3,0.3-0.1,0.6,0.5c0-0.2,0-0.2,0,0.1c-0.1-0.8-0.2-1-1-0.8c1.6-0.7,1.3,3.2,1.5,4.2
		c-0.1-0.2-0.1-0.5-0.1-0.8c0.9,1.8,0.8,4.4,1,6.3c0-0.2,0-0.3,0-0.5c0.3,1.8,0.8,3.4,1,5.5c0-0.3-0.1-0.6-0.2-0.9
		c0.1,0.8,0.2,1.6,0.3,2.3c-0.4-1.8,0-0.1,0,0.2c0-0.2-0.1-0.4-0.1-0.6c0.2,0.8,0.2,1.9,0.4,2.8c-0.1-0.1-0.2-0.2-0.2-0.4
		c0.1,0.5,0.2,1,0.3,1.6c0-0.3-0.1-0.6-0.1-0.9c0.1,0.2,0.2,0.4,0.2,0.6c-0.1-0.7-0.2-1.4-0.3-2.1c0.1,0.3,0.3,1,0.3,1.3
		c0-0.2,0-0.5,0-0.7c-0.3,1.9,0.6,4.7,0.6,6.7c-0.1-0.4-0.1-0.7-0.3-1.1c0.2,2.5-0.3,5.2-1.4,7.8c0.4-0.6,0.6-1.4,1.1-2
		c-0.2,0.6-0.3,1.2-0.5,1.8c1-0.5,1.1-4.1,1.2-5c-0.4,0.5-0.3,3.2-0.5,4c-0.7,1.1-3,2.9-3.3,3.9c0.1-0.1,0.3-0.1,0.4-0.2
		c-0.5-0.1-1.1,0.6-1,1.1c0-0.2-0.1-0.4-0.1-0.5c-0.2,0.1,0,0-0.1,0.1c-0.1-0.4,0.4,1.8,0.3,1.2c0,0.3,0.1,0.6,0.1,0.8
		c0-0.2,0.7,2.9,0.8,3.6c0-0.2-0.1-0.3-0.1-0.5c0.1,1.5,0.8,3.5,1.1,5.3l-0.5-1.2c0.1,0.8,0.6,2.2,0.5,2.9c-0.1-0.5-0.2-1-0.3-1.4
		c0.2,0,0.1,1.1,0.3,1.2c0-0.2,0-0.4,0-0.6c0.1,0.6,0.6,2.6,0.6,2.3c0.1,0.6,0.2,1.1,0.3,1.7c0-0.2,0-0.4-0.2-0.5
		c0.1,0.9,0.4,1.8,0.4,2.7c0-0.6-0.1-1.1-0.3-1.7c0,0,0.1,1.2-0.1,0c0,0.2,0.3,2.1,0.2,1.2c0.3,1.5,0.9,2.8-0.1,3.9
		c0.2-0.3,0.4-0.3,0.7-0.8c-0.3,0.7-0.8,1-1.1,1c-0.3,0.1-0.7,0.1-1,0.2c0.2-0.1,0.9-0.3,1.1-0.2c-0.6,0.1-2.6,0.1-1.2,0.3
		c-1,0.3-1.9,0.4-2.8,0.4c0.6,0,0.5-0.1-1,0.2c0.2,0,0.4,0,0.6,0c-2.8,0.5-2.4-3.4-2.6-5.6c0,0.2,0.5,2.6,0.5,2.6
		c0.4-0.3-0.7-4.2-0.8-4.8c-0.1,0.3,0.4,1.3,0.1,1.4c-0.1-0.8-0.1-2.7-0.6-3.4c0.2,0.2,0.2,0.4,0,0.4c-0.2-1.1-0.4-2.3-0.6-3.7
		c0.1,0.4,0.2,0.4,0.1-0.2c0.1,0,0.5,1.6,0.4,1.7c-0.1-0.6-0.2-1.1-0.3-1.6c0-0.6-0.8-4.2-0.5-2.8c-0.2-0.8-0.1-2.6-0.6-3.3
		c0.1,0.3,0.2,0.5,0.2,0.8c-0.1-0.6-0.2-1.2-0.3-1.8c0,0.1,0.1,0.3,0.1,0.4c-0.2-1.2-0.1-0.5-0.3-0.4c-0.1-0.5-1-0.5-1.5-0.8
		c0.4,0.1,0.9,0.2,1.3,0.3c-0.1-0.6-2.3-0.9-1-0.4c-1-0.3-2.6-1-3.2-1.9c0.2,0.3,1.7,1.5,1.8,1.4c-1.1-0.6-1.9-1.5-2.7-2.4
		c0.3,0.6-1.4-2.5-0.6-0.9c-0.8-1.3-1.4-2.7-1.8-4.1c0,0.2,0.8,1.9,1,2c-0.4-0.9-1.5-4.2-1.5-4.2c-0.1-0.4-0.1-0.9-0.2-1.3
		c0.2,0.7,0.3,1.4,0.6,2.1c0-0.1-0.3-1.8-0.3-1.8c-0.2,0.1-0.2,0-0.1-0.4c0.1,2-0.7-2.2-0.5-2.5c0,0.1,0,0.3,0,0.4
		c-0.4-2-0.8-3.9-1-5.9c0.2,0.7,0.3,1.5,0.4,2.3c-0.3-1.2,0.4,1.4,0.3,1.5c0-0.1-0.1-0.2-0.1-0.2c-0.1,0.6,0.3,1.1,0.5,1.7
		c-0.1-1.2-0.5-2.3-0.6-3.4c0,0.4,0.1,0.7,0.2,1.1c-0.2-0.6-0.2-1.6-0.4-2.3c0.1,0.4,0.2,0.8,0.2,1.2c0-0.1-0.5-2.1-0.4-2.2
		c0.1-0.2-0.7-6.2-1.2-7c0.1,0.2,0.2,0.8,0.1,0.5c0,0.3,0.1,0.6,0.2,0.8c-0.1-0.6-0.1-1.2-0.1-1.8c0.1,0.4-0.1,1.1,0.2,1.4
		c-0.3-0.4-0.5-2.9-0.5-2.9C5.1,95.4,3.8,92.4,5.3,92.2C6.1,92.1,4.9,92.2,5.3,92.2z M-8.8,73.7C-8.9,74.1-9,74.3-9,74.5
		C-9,74.3-8.9,74-8.8,73.7z M-6.9,82L-6.9,82L-6.9,82z M-19.3,84.7c-3.2-2.1-6,1.8-4,4.6c-2.1-2.7,0.6-6.8,3.9-4.9
		c1.1,0.7,1.8,1.9,2.8,2.7c1.7,1.3,2.2-0.6,3.6-0.3c-0.1,0.1-0.2,0.1-0.2,0.2c2-2,3.3,1.3,4.8,1c2.6-0.5,2.3-4.2,1.6-6
		c-0.2-0.5-0.9-0.7-1.1-1.3c-0.4-1.2,0.1-1.9-0.7-3.2c-1.5-2.7,0.6-3.9,1.4-5.8c-0.7,1.5-2.3,2.7-1.5,5c0.5,1.4,0.9,1.9,0.9,3.4
		c-0.1,1.2,1.4,2.2,1.5,3.6c-0.1-1.6-1.9-2.8-1.4-4.2c-0.5,1.4,0.9,2,1.3,3.2c0.3,1.2,0.3,2.6-0.3,3.7c0.2-0.5,0.4-1,0.5-1.5
		c-0.2,1.3-1,3.1-2.6,3.1c-1.3,0-1.8-1.8-3.6-1.4c-1.2,0.3-2.3,1.6-3.6,1C-17.3,87.2-17.9,85.5-19.3,84.7
		C-21.7,83.1-18,85.5-19.3,84.7z M-13.2,124.5c-0.4-2.7-1-6.3-1.5-9.5c0,0.2,0.1,0.3,0.1,0.5c-0.6-4.1-0.9-9.2-2.2-13.2
		c-0.1-0.4-1.1-4.4-0.9-5.8c0,0.4,0.6,2.9,0.4,1c0.1,0.8,0.4,1.6,0.5,2.4c0-1-0.3-2-0.5-3c0,0.2,0.1,0.3,0.1,0.5
		c-0.2-1,0.7-1.7,1.3-1.5c0.4,0.2,1.5-0.2,2-0.3c-0.5,0.1-1.1,0.2-1.6,0.4c0.2-0.1,2.9-0.2,2.9-0.6c-1,0.2,0.6-0.2,0.8-0.3
		c-1.6,0.1-3.2,0.6-4.8,0.7c2.1-0.7,7.4-1.9,10.2-1.8c-0.1,0-2.5,0.4-2.4,0.5c1.6-0.2,3.1-0.5,4.7-0.3c1.9,0.2,2.8,1.7,4.4,2.1
		C0.1,96.2,0,96.1-0.2,96c0.5,0.9,1.8,1.6,2.3,2.6C2,98.5,2,98.4,1.9,98.3c0.1,0,0.8,1.6,0.7,1.3c0-0.3-0.1-0.5-0.3-0.7
		c1.4,1.7,1.6,4.1,2.2,6.1c0.1-0.3-0.5-1.7-0.6-2c0.3,1.2,0.4,2.4,0.8,3.6c-0.1-0.5-0.2-1-0.3-1.4c0.6,1.7,0.7,3.6,0.9,5.4
		c-0.1-0.9,0.3,0.6,0.1,0.7c0.1,0-0.4-1.4-0.4-1.5c0,0.1,0.4,2.2,0.4,2.2c0-0.4,0.2,0.7,0.1-0.1c0,0,0.3,2.7,0.1,1.7
		c0.6,3.4,1.3,6.6,1.6,10.1c-0.1-0.4-0.1-0.8-0.2-1.3c-0.1,0.1-0.1,0.2,0,0.3c-0.1-0.9-0.3-1.9-0.5-2.8c-0.4,0.6,0.4,3.7,0.7,4.5
		c0-0.1-0.4-1.5-0.4-1.6c0.3,2.2,0.9,4.3,1.3,6.5c-0.2-0.2-0.4-1.4-0.3-1.6c-0.6,1.5,0.7,4.1,1,5.6c-0.1-0.6-0.3-1.1-0.4-1.6
		c0,0.2,0.1,0.3,0.1,0.5c-0.3-0.9-0.4-2-0.6-3c0,0.2,0,0.4,0,0.5c-0.1-1.4-0.2-3.5-0.8-4.8c0.2,0.4,0.3,2.1,0.2,2.1
		c0.2,0.9,0.1,1.8,0.4,2.6c-0.1-0.6-0.1-1.1-0.2-1.7c0.3,1.4,0.6,2.8,0.8,4.2c-0.1-0.5-0.2-0.9-0.3-1.4c0.6,3,1.7,6.4,1.8,9.9
		c0-0.5-0.3-1-0.4-1.5c0.3,1.3,0.2,2.7,0.7,4c-0.2-0.5-0.3-1.6-0.4-2.2c0.3,1.6,1,2.9,0.9,4.6c-0.1-0.6-0.2-1.2-0.4-1.8
		c0.3,1.3,1.4,3.3-0.1,3.9c0.3-0.4,0.5-0.6,0.8-1.1c0,1.2-0.9,1.4-2.1,1.4c0.2,0,0.5-0.1,0.7-0.2c-1.3,0.3-2.5,0.3-3.8,0.6
		c0.6-0.1-0.5,0.2-0.6,0.2c0.2-0.1,0.3-0.2,0.5-0.2c-0.2,0.1-0.4,0.1-0.6,0.1c0.8-0.1,1.6-0.2,2.3-0.4c-1.4,0.2,0.9-0.2,1.2-0.3
		c0,0-0.3,0.2-0.4,0.2c0,0,3.5-0.7,2.5-1.2c-0.3,1.2-3.6,1.3-4.8,1.4c0.4-0.1,0.7-0.2,1.1-0.2c-0.6,0-1.2,0.1-1.8,0.2
		c0.2,0,0.5-0.1,0.7-0.2c-0.6,0.1-1.2,0.2-1.8,0.3c0.5-0.1,1.1-0.3,1.7-0.4c-0.8,0-2.2,0.8-1.9-1.2c0,0.7-0.1,0.9-0.1,1.5
		c0-0.1-0.3-1.3-0.3-1.4c0,0.1,0,0.3,0.1,0.4c-0.9-1.7-0.7-4.9-1-6.8c-0.2-1.9-0.5-4-1-6.4c0.1,0.3,0.1,0.7,0.2,1
		c-0.5-3.6-1.1-7.3-1.7-11c-0.3-2-1.1-6-1.2-6.6c-0.2-1.2-0.5-2.5-0.7-3.7c0,0.2,0.1,0.5,0.2,0.7c0-1-0.4-2-0.5-3
		c0.1,0.1,0.3,0.7,0.2,0.9c0.6-1.4-1.3-7.1-1.8-9c-0.8-1.4-3.2-1.7-4.2-0.4c-0.6,0.8-0.4,3-0.4,3.2c1.4,3.3,1.8,8.7,1.9,12.3
		c-0.1-0.8-0.2-1.6-0.4-2.3c0.8,2.5,0.9,5,1.4,7.6c-0.1-0.2-0.1-0.5-0.2-0.7c0.2,1.4,0.6,2.8,0.8,4.3c0,0-0.2-0.9-0.2-1
		c0.3,1.3,1.2,4.2,0.9,5.6c-0.2-1.1,0.4,1.9,0.4,2.3c0-0.4-0.1-0.7-0.1-1.1c1.4,6,1.4,10.5,2.6,16c0.1,0.6-8.2,3.9-7.8,0.1
		c0.4,2.3,1.6,1.5,3.2,1.3c-3.4,0.3-2.9-0.4-3.5-3.5c0.1,0,0.3,1.1,0.3,0.9c-0.2-0.8-0.1-1.7-0.3-2.5c-0.2,0.2-0.2,0.4,0,0.6
		c0-3-1.3-6.6-1.8-9.7C-11.7,134-12.5,128.2-13.2,124.5C-13.3,123.8-12.5,128.5-13.2,124.5z M11.5,198.3c-0.5,4.3-2.9,7.4-7.3,8.4
		c-3.5,0.7-6.7-0.6-9.9-3.9c-0.4-0.4-1.4-2.9-1.8-4.2c0.1,0.3,0.9,2.1,0.5,0.7c0.3,0.6,0.5,1.1,0.8,1.7c-0.3-0.7-0.6-1.4-0.8-2.2
		c0,0.1,0.1,0.2,0.1,0.3c-0.5-1.3-0.6-1.6-0.9-2.8c0.1,0.4,0.2,0.7,0.4,1.1c-0.1-0.1-0.3-2.1-0.5-2.2c0.1,0.7-0.2-0.4-0.2-0.6
		c0,1.2,0.5,2.4,0.7,3.6c-0.8-1.5-1.6-5.5-1.6-7.6c0,0.1,0.4,1.8,0.4,1.7c-0.2-1.2-0.3-5.7-1.2-6.6c0,0.1,0.1,0.2,0.2,0.3
		c0.2-0.3-0.4-2.1-0.5-2.4c-0.2,0.6,0-0.7,0-0.8c-0.1,0.2-0.1,0.4,0,0.6c-0.6-1.5-0.3-3.1-0.8-4.6c-0.1,0.2,0.3,1.2,0.3,1.5
		c-0.1-0.9-0.2-1.8-0.4-2.7c0,0.4,0.1,0.7,0.2,1.1c-0.5-1.3-0.5-2.7-0.7-4c0.1,0.7-0.1-0.4-0.1-0.5c0.1,0.2,0.3,1,0.3,1.1
		c-0.1-0.4-0.5-2-0.5-1.6c0,0-0.2-2,0-1.3c-0.5-2.5-1-5-1.2-7.5c0,0,0.3,1.5,0.2,0.7c0.1,0.7,0.2,1.4,0.3,2.1
		c0.3-0.4-0.3-2.8-0.5-3.4c0.2,0.4,0.3,0.7,0.3,1.2c-0.2-1.7-0.7-3.2-1-4.9c0.1,0.1,0.3,1.1,0.3,1.1c0.1-1.5-0.5-2.7-0.8-4.1
		c0.1,0.4,0.2,0.8,0.3,1.2c0-0.1,0-0.2-0.1-0.4c0.1,0.1,0.1,0.2,0.2,0.3c-0.1-0.6,0.5,2.6,0.4,1.9c0-0.1,0-0.3,0-0.4
		c0,0.9,0.9,2.8,0.7,3.6c-0.2-0.5-0.5-1.5-0.2-1.6c-0.1-0.7-0.2-1.3-0.3-2c0,0.4,0.1,0.9,0.1,1.3c-0.3-1-0.5-2.1-0.6-3.1
		c0,0.4,0.1,0.7,0.3,1c-0.4-2.2-2.6-6.6,1.2-6.5c-0.4,0-0.8,0.2-1.1,0.3c0.7-0.2,2.2-0.5,3-0.6c-0.5,0.1-1.1,0.2-1.6,0.3
		c1.1-0.2,2.3-0.8,3.5-0.8c-0.5,0.1-0.9,0.2-1.3,0.4c0.8-0.2,1.6-0.4,2.5-0.5c-0.1,0-0.3,0-0.4,0c0.5-0.1,0.9-0.2,1.4-0.3
		c-0.2,0-0.4,0.1-0.5,0.1c1-0.3,1.9-0.2,2.9-0.4c-0.4,0,0.3-0.2,0.5-0.1c-0.1,0.1-0.2,0.2-0.4,0.2c0.2,0,0.3-0.1,0.5,0
		c-0.6,0-1.2,0.2-1.8,0.4c1.1-0.2-0.6,0.2-0.9,0.2c0,0,0.2-0.2,0.3-0.2c-0.2,0-1.7,0.2-1.8,0.4c1.2-0.1,2.4-0.4,3.6-0.5
		c-2.4,0.7,1.3-0.7,0,0.2c0.4-0.1,0.9-0.2,1.3-0.2c-0.4,0.1-0.8,0.2-1.2,0.3c0.6,0,1.4-0.3,2.4-0.3c-0.4,0-0.8-0.1-1.2-0.3
		c0.4-0.1,0.8-0.1,1.1-0.2c-0.1-0.1-0.2-0.1-0.3,0c2-0.7,4.5,1.3,5.6,2.7c0.6,0.7,1.3,2.2,1.9,3.5c-1-2.2,0.5,1.7,0.5,1.7
		c0.4,1.3,0.7,2.7,0.9,4.1c0.3,2,0.8,4,0.9,6.1c0.1,0.6,0.1,2-0.2,3.4c0-0.2,0.1-0.4,0.1-0.6c-0.2,0.8-0.4,1.5-0.7,2.3
		c0.1-0.2,0.1-0.4,0.2-0.7c-0.1,3-4.9,6.6-6.9,8.7c-1.6,1.6-2.3,1.7-1.9,4c0.4,2.3,1.1,4.8,1,7.2c-0.1-0.5-0.3-1.3-0.4-1.7
		c0.3,0.8,0.4,2.4,0.6,3.1c0.2,0.6,1,2.9,0.4,1.9c0.2,0.4,0.3,0.5,0.2,0.4c0.3,0.5,0.8,0.8,1.2,1.1c1.3,0.4-0.1,0-0.1,0
		c1.4,0.3,1.9-0.2,2.8-1c-0.2,0.5,0.1-1.2,0.2-1.4c0,0.2,0,0.5,0,0.7c0-3.9-0.9-7.3-1.5-10.9c-0.4-2.2,4.4-2.2,6-2.4
		c-0.9,0.2-1.5,0.4-2.2,0.5c1.7-0.1,4-1.3,3.9,1.4c-0.1,0-0.3-0.8-0.3-0.7c0.1,0.7,0.1,1.2,0.2,1.9c0.2-0.1,0.2-0.3,0.1-0.5
		C10,190.9,12,193.7,11.5,198.3C11.4,199.9,11.7,196.7,11.5,198.3z M32.9,193.3c-0.2,3.1-1.4,8.3-5.7,9.2c0.7-0.3,1.4-0.6,1.9-1.1
		c-1.5,1.4-4.8,2-6.9,1.7c2.1,0-1-0.2-1-0.2c-0.8-0.2-1.5-0.6-2.2-1c0,0,0.8,0.4,0.9,0.4c-1.2-0.5-3.5-2.4-3.7-3.8
		c0.6,0.9-0.9-1.6-0.9-1.9c0.1,0.3,0.2,0.6,0.4,0.9c-0.7-1.3-4.3-14.1-2.6-14.4c0.7-0.7,6-1.3,6.5-1.1c-0.8-0.3-1.7,0.3-2.4,0.4
		c3.2-0.3,2.6,0.2,3.3,3.1c-0.1,0-0.3-1-0.3-0.8c0.1,0.8,0.1,1.5,0.3,2.2c0.2-0.1,0.2-0.3,0.1-0.6c0,2.1,0.7,6.3,1.8,8.3
		c0.1,0.1,1.2,1.3,2.4,0.7c1.7-0.8,0.7-3.6,0.5-5c-0.5-2.6-0.9-5.3-2.9-7.7c0.1,0.1,0.2,0.2,0.3,0.3c-2.1-2.8-5.9-5.8-8.7-8.1
		c-0.6-0.5-2.2-3.1-2.9-4.5c0.2,0.3,1.5,2.3,0.7,0.7c0.3,0.7,0.9,1.2,1.2,1.8c-0.5-0.8-1-1.6-1.4-2.4c0.1,0.1,0.1,0.2,0.2,0.4
		c-0.8-1.4-1-1.8-1.5-3.1c0.2,0.4,0.4,0.8,0.6,1.3c-0.1-0.1-0.6-2.5-0.9-2.5c0.2,0.9-0.2-0.5-0.3-0.7c0.1,1.5,0.9,2.8,1.4,4.2
		c-1.2-1.9-2.4-6.2-2.5-9c0,0.2,0.4,2.1,0.5,2.1c-0.2-1.5-0.2-6.5-1.4-7.8c0,0.1,0.1,0.3,0.2,0.4c0.2-0.5-0.5-2.4-0.6-2.8
		c0,0.1,0,0.2,0.1,0.3c0-0.4-0.1-0.8-0.1-1.2c-0.1,0.2-0.1,0.4,0,0.7c-1.3-3.6,1.1-3,3.7-3.8c-0.3-0.1-1.4,0.3-1.7,0.4
		c1.1-0.2,2.2-0.2,3.2-0.5c-0.4,0.1-0.8,0.1-1.2,0.2c1.5-0.6,3.2-0.6,4.8-0.8c-0.8,0.1,0.4-0.1,0.6-0.1c-0.2,0.1-1.1,0.4-1.3,0.3
		c0.2,0,2.7-0.5,2-0.5c0,0,2.6,0.2,1.7,0.2c1,0.1,2,0.2,2.9,0.6c1.9,0.9,3.6,3.2,4.4,5.3c-1-2.2-0.6-1.1-0.4-0.8
		c-0.4-0.8-0.9-1.6-1.5-2.3c0,0.7,1.7,3,2.1,3.7c-0.3-0.4-0.6-0.8-0.8-1.3c0.9,1.8,1.7,3.7,2.2,5.7c-0.2-0.1-0.5-1.3-0.4-1.4
		c-0.4,1.3,0.8,3.7,1,5c-0.1-0.5-0.2-1-0.4-1.5c0,0.1,0,0.3,0.1,0.4c-0.1-0.1-0.1-0.3-0.2-0.4c0.1,0.4-0.6-2.7-0.5-2.3
		c0,0.2,0,0.3,0,0.5c-0.1-1.2-0.5-3.3-1.3-4.2c0.3,0.3,0.6,1.8,0.5,1.9c0.3,0.8,0.3,1.6,0.6,2.3c-0.1-0.5-0.1-1-0.2-1.5
		c0.4,1.2,0.7,2.4,0.9,3.7c-0.1-0.4-0.2-0.8-0.3-1.2c0.2,0.7,1.6,5.7,0.6,5.9c-0.4,0.4-2.7,0.6-3.4,0.7c0.4,0,0.9-0.3,1.4-0.3
		c-1,0.2-2.6,0.6-3.5,0.6c0.6-0.1,1.2-0.3,1.9-0.4c-2,0.4-3.6,1.2-3.5-1.6c0.1,0.5,0.2,1.1,0.4,1.6c-0.2-1-0.5-1.9-0.6-3
		c0,0.2,0,0.3,0,0.5c-0.1-0.6-0.2-1.1-0.3-1.7c0,0.2,0.1,0.4,0.2,0.6c-0.2-1.2-0.3-2.2-0.5-3.4c0,0.5-0.2-0.4-0.1-0.5
		c0.1,0.1,0.2,0.3,0.2,0.5c-0.1-0.2-0.1-0.4-0.1-0.5c0.1,0.7,0.2,1.4,0.4,2.1c-0.2-1.3,0.2,0.8,0.3,1.1c0,0-0.2-0.3-0.2-0.4
		c0,0.3,0.2,2,0.5,2.2c-0.1-1.4-0.5-2.8-0.6-4.2c0.1,0.3,0.2,0.7,0.2,1c0-0.5-0.1-1.1-0.1-1.6c0,0.2,0.1,0.4,0.2,0.6
		c-0.1-0.5-0.2-1.1-0.3-1.6c0.1,0.5,0.2,1,0.3,1.5c0-0.6-0.2-1.8-0.5-2.8c0.1,0.6,0,0.8,0,1.4c-0.1-0.4-0.2-0.8-0.3-1.2
		c-0.1,0.1-0.1,0.2,0.1,0.4c-1.1-0.9-0.4-2.4-2.4-2.1c-0.9,0.1-1.6,0.7-1.8,1.6c-0.2,1,0.1,3,0.4,4.5c-0.1-0.3-0.1-0.6-0.2-0.9
		c0.5,3.2,1,5.8,3.1,8.5c1.2,1.5,4,4.1,4.5,4.6c0.9,0.8,1.7,1.5,2.6,2.2c-0.2-0.2-0.3-0.3-0.5-0.4c0.6,0.7,1.3,1.3,1.9,2
		c-0.2-0.2-0.4-0.4-0.6-0.5C31.6,180.1,33.2,188.4,32.9,193.3z M43.6,198.8c0.1,0.9-0.2-0.7-0.2-0.9c0.1,0.8-0.2-0.5-0.2-0.6
		c0.1,0.1,0.1,0.1,0.2,0.2c0.1,0-0.2-1.2-0.3-1.3c0,0.8,0.3,1.6,0.3,2.5c-0.6-1.6,0.6,0.8-0.2,0c0.1,0.3,0.1,0.6,0.2,0.9
		c-0.1-0.3-0.2-0.6-0.2-0.8c0.1,0.3,0.1,0.4,0,0.2c0,0.2,0.1,0.4,0.1,0.6c-0.3,0-0.5,0.1-0.8,0.1c0.3,0,0.6,0.1,0.8,0.2
		c-0.4,0.1-0.7,0.3-0.5,0.2c-0.9,0.8-3.8,0.3-4.7,0.6c-1.2,0.4-1.2,0.1-1.5-1.2c0,0.2,0.1,0.3,0.1,0.5c-0.5-3.5-2.2-7.9-2-11
		c0.1,0.1,0.1,0.2,0.1,0.3c0-0.5-0.1-1-0.3-1.6c0.1,0.1,0.1,0.3,0.2,0.4c-1.2-1.5-1.3-6.4-1.6-8.4c-0.4-2.3-1.3-5.2-1.1-7.7
		c0.1,0.3,0.2,0.9,0.3,1.2c-0.5-1-0.6-2.7-0.8-3.9c0.1,0.1,0.1,0.2,0.2,0.4c-0.2-0.7-0.4-1.5-0.5-2.2c0,0.2,0.1,0.3,0.2,0.5
		c-0.2-0.7-0.4-2.7-0.4-2.7c0-0.4-0.1-0.9-0.2-1.3c-0.2,0-0.2,0.2,0,0.5c-1.2-4-1.2-7.6-2-11.9c0,0.1,0.3,1.3,0.2,1.1
		c0,0.2,0.1,0.3,0.1,0.5c0-0.9-0.3-1.9-0.5-2.8c0,0.2,0.1,0.3,0.3,0.4c-0.1-0.5,0-0.8-0.1-1.3c0,0-1.5-3.1-0.8-4.1
		c0.7-1,4.1-0.9,5.4-1.1c3.2-0.6,2.8,3.7,3.2,6.3c0-0.1-0.1-0.2-0.1-0.3c0.4,3.2,1,6.5,1.6,9.8c0-0.1-0.4-1.6-0.4-0.5
		c-0.1-0.4-0.2-0.8-0.3-1.2c0.1,0.5,0.2,1,0.2,1.6c0-0.1,0.3,1.2,0.4,1.7c-0.1-0.3-0.2-0.5-0.2-0.8c0.4,0.9,0.3,1.2,0.5,1.9
		c-0.1-0.8-0.2-1.6-0.3-2.5c-0.1-0.2,0.2,0.5,0.1,0.2c0.3,1.5,1,3.4,0.9,5c0-0.4-0.2-0.8-0.3-1.2c0.1,0.7,0.8,4.3,0.7,4.3
		c0.5,0.4,0.4,1.7,0.3,2.2c0.1-0.1,0.1-0.2,0-0.4c0.5,1,0.2,2.2,0.6,3.2c0,0-0.2-0.9-0.3-1c0.1,0.6,0.1,1.2,0.3,1.8
		c0-0.2-0.1-0.5-0.2-0.7c0.5,1,0.4,2.5,0.6,3c0-0.2-0.1-0.5-0.2-0.7c0,0.1,0.4,1.5,0.4,1.1c-0.2-2.1,0.3,1.8-0.1,0.9
		c0.3,1.8,0.8,3.4,0.8,5.1c-0.2-1.3,0.2,0.4-0.4-1.9c-0.2,0.2,0.1,2,0.3,2.3c-0.2-0.2-0.3-0.5-0.3-0.8c0.1,1.2,0.6,2.2,0.8,3.3
		c0.1-0.4,0-0.6-0.2-0.8c-0.2,1,0.4,1.9,0.5,2.8c-0.1-0.3-0.2-0.6-0.3-0.8c0.1,0.3,0.1,0.3-0.1,0c0.3,0.3,0.3-0.1-0.3-1.3
		c0,0.1,0,0.2,0,0.3c0-0.5-0.6-2.2-0.6-2.4c0.4,1.1-0.1,1.4,0.3,2.4c0-0.3,0-0.6,0-0.9c0.3,0.9,1.3,2.4,0.3,1.4c0.3,1.5,1,3.3,1.1,5
		c0-0.1-0.2-0.5-0.3-0.7c0.1,0.4,0.4,1.7,0.4,2c-0.1-0.4-0.2-0.7-0.2-1.1c0.2,0.8,0.7,1.6,0.6,2.4c-0.1-0.3-0.2-0.6-0.3-0.9
		c0.2,0.6,0.3,1.1,0.4,1.7c0-0.1,0-0.2,0-0.3c0.1,0.3,0.1,0.6,0.2,1c0-0.1,0-0.3-0.1-0.4C43.5,197.3,43.9,199.3,43.6,198.8
		C43.6,198.9,43.6,198.9,43.6,198.8z M59.6,160.9c0,0.2,0.1,1,0.2,1.2c0-0.2-0.1-0.4-0.1-0.5c0.1,0.8,0.2,1.5,0.4,2.3
		c-0.1-0.2-0.1-0.4-0.2-0.6c1.6,2.9,1.7,8.9,2.2,12.2c0.5,3.4,2,7.6,1.5,11.5c0-0.5-0.1-1.3-0.2-1.8c0.5,1.7,0.3,4.2,0,5.9
		c0.1-1.2-0.5,1.9-0.9,2.7c0.1-0.2,0.2-0.5,0.3-0.8c-0.3,0.9-1.7,3.4-2.8,3.5c0.7-0.5-1.3,0.8-1.6,0.9c0.3-0.1,0.6-0.2,0.8-0.3
		c-2.2,1.5-5.6,1.7-8.2,0.8c-2.5,0.3-5.5-5.6-6.3-8.1c0.3,1,0.7,1.6,1,2.4c-0.5-1.4-0.9-2.7-1.3-4.1c0.1,0,0.3,0.8,0.4,0.6
		c-0.2-0.6-0.2-1.3-0.3-1.9c-0.2,0.1-0.2,0.3-0.1,0.5c0-2.2-1-5-1.4-7.2c0-0.1-0.5-1.8,0.9-2.1c1.9-0.3,3.7-0.6,5.6-1
		c1.7-0.3,2.3,8.2,2.5,9.5c0-0.1-0.1-0.3-0.1-0.4c0.2,1.7,1.2,5.6,3.6,3.7c1.3-1,0.5-3.4,0.3-4.8c0.1,0.3,0.5,2.1,0.4,0.7
		c0.2,0.6,0.3,1.2,0.4,1.8c0.1-0.8-0.2-1.5-0.3-2.2c0,0.1,0.1,0.2,0.1,0.3c-0.3-1.3-0.3-1.6-0.6-2.8c0.1,0.4,0.2,0.7,0.3,1.1
		c0-0.1-0.1-2.1-0.4-2.1c0.1,0.7-0.2-0.4-0.2-0.6c0,1.2,0.5,2.4,0.5,3.6c-0.6-1.5-1.4-5.5-1.4-7.5c0,0.1,0.4,1.8,0.4,1.7
		c-0.2-1.2-1-4.5-3-4.2c0.1,0,0.2,0.1,0.4,0.1c-0.2-0.3-1.9-0.8-2.2-1c0.4,0.5-0.6-0.4-0.7-0.4c0.1,0.2,0.3,0.3,0.4,0.3
		c-1.6-0.4-2.8-1.5-4.3-2c0.1,0.2,1.2,0.5,1.4,0.6c-0.8-0.4-1.6-1-2.5-1.4c0.3,0.2,0.6,0.4,1,0.6c-1.8-0.6-2.9-2.4-3.7-3.2
		c0.2,0.1,0.8,0.7,0.9,0.8c-0.3-0.3-1.5-1.7-1.3-1.3c0,0-1-2-0.5-1.3c-0.4-0.7-0.8-1.4-1-2.1c-0.5-1.5-0.7-3.8-0.8-5.4
		c0,0,0.3,1.5,0.2,0.7c0.1,0.7,0.2,1.4,0.3,2.1c0.3-0.4-0.3-2.8-0.5-3.4c0.2,0.4,0.3,0.7,0.3,1.2c-0.2-1.7-0.7-3.3-0.8-5
		c0.1,0.1,0.2,1.1,0.2,1.2c0.2-1.4-0.2-2.8-0.1-4.2c0,0.4,0,0.8,0.1,1.2c0-0.1,0-0.3,0-0.4c0,0.1,0.1,0.2,0.1,0.4
		c0-0.2,0.1,2.1,0.1,2s0-0.3,0-0.4c-0.1,1,0.7,2.8,0.5,3.6c-0.2-0.5-0.4-1.5-0.1-1.6c0-0.7-0.1-1.3-0.1-2c0,0.4,0,0.9,0,1.3
		c-0.2-1.1-0.3-2.1-0.2-3.2c0,0.4,0,0.7,0.1,1.1c-0.1-2-0.1-5.8,1.8-7.5c-0.3,0.3-0.4,0.8-0.6,1.1c0.5-1,1.5-1.6,2.3-2.3
		c-0.4,0.3-1,0.7-1.4,1.1c0.8-0.9,1.9-2,3.2-2.1c-0.5,0.1-0.9,0.3-1.3,0.6c0.8-0.5,1.6-0.7,2.6-0.8c-0.1,0-0.3,0-0.4,0
		c0.5-0.1,0.9-0.2,1.4-0.3c-0.2,0-0.4,0.1-0.5,0.1c1-0.3,1.9-0.2,2.9-0.4c-0.4,0,0.3-0.2,0.5-0.1c-0.1,0.1-0.2,0.2-0.4,0.2
		c0.2,0,0.3-0.1,0.5,0c-0.6,0-1.2,0.2-1.8,0.4c1.1-0.2-0.6,0.2-0.9,0.2c0,0,0.2-0.2,0.3-0.2c-0.2,0-1.7,0.2-1.8,0.4
		c1.2-0.1,2.4-0.4,3.6-0.5c-2.4,0.7,1.3-0.7,0,0.2c0.4-0.1,0.9-0.2,1.3-0.2c-0.4,0.1-0.8,0.2-1.2,0.3c0.5,0,1.5-0.2,2.4-0.4
		c-0.4,0.1-0.8,0-1.2-0.2l1-0.3c-0.1,0-0.2,0-0.3,0c1.2-0.8,5.6-1.3,5.9,0.1c0.1,0.7,0.3,2.7,0.6,3.9c-0.1-0.3-0.1-0.5-0.2-0.8
		c0.5,3.8,1.2,7.6,1.9,11.4C59,158.6,59.8,159.9,59.6,160.9C59.6,161.4,59.6,161.1,59.6,160.9z"/>
	<path fill="#1A171B" d="M52.6,165.8c0-0.2,0-0.4-0.1-0.5c0,0.2,0.1,0.3,0.2,0.4c-0.2-1.1-0.1-2.6-0.7-3.2c0.2,0.2,0.2,0.2,0.1,0.2
		c-0.1,0.4-0.1-1,0-0.3c-0.3-0.2-0.3-0.8-0.3-1c0.1,0,0.2,0.1,0.2,0.2c0-0.6-0.4-0.6-0.4-1.2c0-0.5-0.1-0.8,0-1.3
		c0.2,0.7-0.3-0.5,0.1,0.7c0,0,0-1.4,0.1-0.6c0-0.5-0.3-0.7-0.4-1.1c0,0.2,0.1,0.3,0.2,0.2c0,0-0.3-0.8-0.3-0.9
		c0.2,0.3,0.2,0.4,0.2,0.2c0,0.1,0.6,1.2,0.6,1.3c-0.1-0.2,0.1-1.2-0.1-0.5c-0.1-0.2-0.8-1.6-0.7-2.2l0.2,0.2c0,0-0.1-0.9-0.2-0.7
		c0.1,0.1,0.1,0.2,0.1,0.4c-0.2-0.6-0.6-0.6-0.1-0.5c-0.3-0.7-0.4-0.8-0.5-1.3c0-0.2,0.3-0.1,0.2-0.2l0.3,1c0.1-0.3-0.1-0.6-0.1-0.9
		c0.2,0.3,0.3-0.2,0.2-0.3c0,0,0.3,0.4,0.2,0.2c0-0.2-0.1-0.3-0.1-0.5c-0.2,0.9-1-1.8-1-1.8c-0.6-0.8-1.7-1.1-2.5-0.8
		c-0.4,0.1-0.6,0.3-1,0.5c-0.1-0.5-1,1.6-1,1.9c-0.2,0.7,0.5,1.9,0.1,2.6c-0.1-0.2-0.1-0.3-0.1-0.4c0,0,0.4,1.2,0.4,1.3
		c0-0.1,0,0.5,0,0.5c0.2,0.2,0.3,1.6,0.2,1.2c0.8,1.3,0.2,2.6,0.9,4c-0.1-0.1-0.2-0.2-0.2-0.4c0.1,0.1,0,0-0.1-0.1
		c0,0.3,0.1,0.6,0.3,0.9c-0.1,0.1-0.5-0.1-0.2,0.4C47.4,162.9,52.7,167.5,52.6,165.8C52.6,165.6,52.6,166,52.6,165.8z"/>
	<path fill="#1A171B" d="M68.5,123.7c-0.1-0.3-0.2-0.6-0.2-0.9c0,0-0.2-0.9-0.3-1.2c0,0.3,0.1,0.4,0.3,0.5c-0.2-0.9-0.3-0.7-0.5-1.3
		c0.1,0.6,0.1,1.2,0.2,1.8c0,0.1-0.1-0.4-0.1-0.1c-0.2-0.9-0.9-2.7-0.7-3.7c0,0.3,0.1,0.6,0.3,0.9c-0.1-0.4-0.7-3.3-0.5-3.2
		c-0.3-0.2-0.3-1.3-0.2-1.6c-0.1,0.1-0.1,0.2-0.1,0.3c-0.4-0.7-0.1-1.6-0.5-2.3c0,0,0.2,0.6,0.2,0.7c-0.1-1.1-0.1-0.8-0.2-1.4
		c0,0.2,0.1,0.4,0.1,0.5c-0.5-0.7-0.3-1.9-0.4-2.2c0,0.2,0.1,0.4,0.2,0.5c-0.2-1.7-0.9-3.3-0.9-5.3c0.1,0.9-0.2-0.1,0.3,1.4
		c0.2-0.1-0.1-1.5-0.2-1.7c0.2,0.1,0.3,0.3,0.3,0.6c-0.1-0.9-0.5-1.6-0.6-2.5c-0.1,0.3,0,0.5,0.2,0.6c0.2-0.8-0.3-1.4-0.4-2.1
		c0.1,0.6,0.3,0.4,0.3,0.6c0.1,0.3,0.8,2.3,0.7,2.6c-0.3-0.8,0.2-1.1-0.2-1.8c0,1.4-1.1-1-0.2-0.4c-0.3-1-0.8-2.5-0.9-3.7
		c0,0,0.2,0.4,0.2,0.5c-0.1-0.2-0.3-1.4-0.3-1.5c0.1,0.3,0.1,0.5,0.2,0.8c-0.1-0.5-0.6-1.2-0.5-1.8c0,0.2,0.1,0.5,0.3,0.7
		c-0.2-0.4-0.3-0.8-0.3-1.3c0,0-0.1,0-0.2-0.5c0,0.1,0,0.2,0.1,0.3c-0.1-0.4-0.1-1.6-0.3-1.7c0.2,0.2,0.2,0.1,0.1-0.1
		c0,1.1,0.2,0.4,0.4,1.3c-0.1,0-0.1-0.1-0.2-0.2c-0.1,0,0.2,0.9,0.3,0.9c0-0.4-0.1-2.4-0.1-1.4c-0.1-0.8,0-0.9,0.1-0.4
		c0-0.2-0.1-0.5-0.1-0.7c0.1,0.2,0.2,0.4,0.2,0.6c-0.1-0.2-0.1-0.3,0-0.2c0-0.3-0.1-0.7-0.2-1c0,0.2-0.1,0.5-0.2,0.6
		c-0.2-0.6-0.1-0.4-0.2-0.4c-0.5-0.3-0.7-1.9-1.3-2.3c-0.1-0.1-0.9-0.3-0.9-0.3c-0.1,0-1.3,0.1-0.6-0.1c-4.5,0.1-1.9,4-2.2,6
		c-0.1-0.1-0.1-0.1-0.1-0.2c0,0.4,0.1,0.8,0.2,1.2c0.2,0.1,0.9,4.7,1.1,5.8c0.3,1.6,1.1,4,0.8,5.8c-0.1-0.2-0.2-0.8-0.2-0.9
		c0.3,0.6,0.5,2.1,0.6,2.9c0-0.1-0.1-0.2-0.1-0.3c0.2,0.5,0.3,1.1,0.4,1.6c0-0.1-0.1-0.2-0.1-0.4c0.4,0.8,0.5,3,0.4,2.6
		c1.1,2.9,0.9,5.7,1.6,8.9c-0.1-0.5-0.3-0.8-0.3-1.1c0,0.7,0.2,1.4,0.4,2.1c0-0.1-0.1-0.2-0.3-0.3c0.1,0.4,0,0.6,0.1,1
		c0.7,0.1,0.4,3,0.9,3.2c0.6,2.1,4.6,2.6,4.6,0.5c0.6-1.7-0.4-5.1-0.8-6.8c0,0.1,0.4,1.1,0.3,0.3C68.2,123.3,68.7,124.2,68.5,123.7z
		"/>
	<path fill="#1A171B" d="M-2.5,175.3c1.3-0.9,2.1-2.3,2.8-3.4c0.3,0.3-0.2-4.8,0-5.2c0.1,0.2,0,0.3,0.1,0.4c0,0-0.4-1.2-0.4-1.3
		c0,0.1,0-0.5,0-0.5c-0.2-0.2-0.3-1.6-0.2-1.2c-0.8-1.4,0-2.6-1-3.8c0.1,0.1,0.2,0.2,0.3,0.3c-0.1,0,0,0,0.1,0.1
		c0-0.3-0.2-0.5-0.4-0.7c0.1-0.1,0.5-0.1,0.1-0.4c-0.2,0.2-1.2-0.3-1.2-0.2c-1.2-0.1-1.8,1-2.5,1c0.2,0.4-0.4,2.1-0.2,3
		c-0.1-0.1-0.5-0.2-0.5-0.6c-0.1,0.2,0,0.5,0,0.5c0.2,0.7,0.1,0,0.3,0.4c-0.2,0-0.2,0,0,0.2c0-0.2-0.1-0.2-0.2-0.2
		c0.1,0.3,0.3,0.4,0.4,0.6c0-0.3,0-0.6-0.1-0.9c0.1,0.2,0.7,1.4,0.5,1.8c0-0.2-0.1-0.3-0.2-0.4c0.2,1.1,0.1,2.6,0.7,3.2
		c-0.2-0.2-0.2-0.2-0.1-0.2c0.1-0.4,0.1,1,0,0.3c0.3,0.2,0.3,0.8,0.3,1c-0.1,0-0.2-0.1-0.2-0.2c0,0.6,0.4,0.6,0.4,1.2
		c0,0.5,0.1,0.8,0,1.3c-0.2-0.7,0.3,0.5-0.2-0.7c0,0,0,1.4-0.1,0.6c0,0.5,0.3,0.7,0.4,1.1c0-0.2-0.1-0.3-0.2-0.2
		c0,0,0.3,0.8,0.3,0.9c-0.2-0.3-0.2-0.4-0.2-0.2c0-0.1-0.6-1.2-0.6-1.3c0.1,0.2-0.1,1.2,0.1,0.5c0.1,0.2,0.8,1.6,0.7,2.2l-0.2-0.2
		c0,0,0.1,0.9,0.2,0.7c-0.1-0.1-0.1-0.2-0.1-0.4c0.2,0.6,0.6,0.6,0.1,0.5c0.3,0.9,0.1,0.3,0.4,0.8c-0.1-0.2-0.1-0.2,0,0
		C-3.3,175.8-2.7,175.3-2.5,175.3z"/>
</g>
</svg>
