<?xml version="1.0" encoding="UTF-8" standalone="no"?><!DOCTYPE svg PUBLIC "-//W3C//DTD SVG 1.1//EN" "http://www.w3.org/Graphics/SVG/1.1/DTD/svg11.dtd"><svg width="100%" height="100%" viewBox="0 0 150 150" version="1.1" xmlns="http://www.w3.org/2000/svg" xmlns:xlink="http://www.w3.org/1999/xlink" xml:space="preserve" style="fill-rule:evenodd;clip-rule:evenodd;stroke-linejoin:round;stroke-miterlimit:1.41421;"><path d="M91.913,23.84c-0.873,-2.007 -4.453,-1.832 -3.492,0.873c0.785,2.706 4.539,1.659 3.492,-0.873l0,0Z" style="fill-rule:nonzero;"/><path d="M127.438,112.089c0,-1.397 -3.753,-3.666 -4.713,-2.183c-2.182,3.667 4.626,6.111 4.713,2.183Z" style="fill-rule:nonzero;"/><path d="M105.442,130.07c-0.087,0 -0.087,0.088 -0.174,0.088c-2.444,1.483 0,8.816 3.317,7.506c4.189,-1.571 0.523,-9.34 -3.143,-7.594l0,0Z" style="fill-rule:nonzero;"/><path d="M127.788,128.761c0.436,1.834 1.921,3.753 2.706,2.619c0.523,-0.873 -2.27,-2.356 -2.706,-2.619Z" style="fill-rule:nonzero;"/><path d="M59.965,17.644c-1.048,0.96 0.175,4.277 1.396,2.531c0.524,-0.698 -0.523,-3.404 -1.396,-2.531Z" style="fill-rule:nonzero;"/><path d="M22.954,63.906c-0.785,1.484 1.746,2.618 2.532,0.699c0.698,-1.659 -1.571,-2.096 -2.444,-0.873c-0.088,0.261 -0.088,0.261 -0.088,0.174Z" style="fill-rule:nonzero;"/><path d="M42.42,83.196c-1.746,0 -2.794,0.786 -2.794,2.969l0,4.19c0,2.531 1.048,3.404 2.706,3.404c2.096,0 2.794,-1.397 2.794,-3.579l0,-4.015c-0.087,-2.269 -1.048,-2.969 -2.706,-2.969Z" style="fill-rule:nonzero;"/><path d="M92.348,83.196c-2.181,0 -2.792,1.31 -2.792,3.492l0,2.096c0,2.181 0.611,3.49 2.792,3.49c2.183,0 2.794,-1.309 2.794,-3.49l0,-2.096c-0.087,-2.182 -0.611,-3.492 -2.794,-3.492Z" style="fill-rule:nonzero;"/><path d="M43.991,68.445c2.095,0 2.619,-1.309 2.619,-3.579l0,-6.982l-2.444,0c-1.834,0 -2.794,1.046 -2.794,2.879l0,4.19c0.088,2.444 0.873,3.492 2.619,3.492l0,0Z" style="fill-rule:nonzero;"/><path d="M92.261,68.445c1.658,0 2.706,-0.873 2.706,-3.404l0,-4.19c0,-2.269 -1.048,-2.967 -2.792,-2.967c-1.659,0 -2.706,0.698 -2.706,2.967l0,4.102c0,2.096 0.698,3.492 2.792,3.492l0,0Z" style="fill-rule:nonzero;"/><path d="M146.031,77.348c-1.309,-0.348 -4.801,-0.523 -7.157,0c-2.357,0.437 -3.842,0.35 -5.413,-0.087c-1.745,-0.436 -5.761,-2.357 -4.713,-3.841c1.048,-1.483 4.713,-3.229 0.786,-5.062c-1.659,-1.048 -3.317,-2.095 -2.881,-4.539c0.349,-2.008 1.746,-3.928 3.229,-4.714c2.183,-1.396 6.198,-0.436 8.294,-3.404c1.134,-1.309 -2.969,-2.88 -6.023,-0.698c-3.056,2.095 -4.278,2.008 -6.809,1.833c-1.223,-0.088 -2.357,-0.961 -2.531,-2.183c-0.175,-1.222 0.348,-2.182 1.658,-2.793c0.436,-0.174 1.221,-0.61 1.396,-1.571c0.175,-0.96 -0.873,-1.571 -2.269,-1.745c-1.309,-0.175 -2.269,0.087 -3.404,-0.088c-2.269,-0.437 -3.579,-3.841 -2.269,-5.761c1.745,-2.706 3.316,-5.673 9.165,-9.602c5.848,-3.928 6.284,-7.507 4.626,-7.594c-2.619,-0.174 -6.285,4.889 -9.078,7.944c-2.88,3.054 -5.325,4.364 -7.507,5.411c-2.182,1.048 -4.365,0 -4.626,-2.357c-0.087,-0.698 0,-1.483 -0.262,-2.094c-0.786,-2.27 -1.833,-2.794 -4.365,-2.096c-3.317,0.961 -4.19,0.437 -5.15,-1.483c-1.309,-2.532 -0.785,-4.626 0.175,-7.071c0.437,-1.221 1.658,-2.793 0.437,-4.103c-1.135,-1.221 -2.968,-0.435 -3.492,0.612c-0.785,1.397 -0.612,2.968 -0.873,4.539c-0.437,2.356 -1.658,4.19 -4.015,5.325c-2.008,1.047 -4.801,0.523 -6.285,-1.223c-4.538,-4.975 -4.538,-11.259 -4.452,-13.355c0.175,-4.102 2.183,-12.395 0.612,-14.664c-0.35,-0.524 -1.398,-0.96 -2.183,-0.873c-1.134,0.088 -1.746,1.134 -1.832,2.095c-0.175,3.404 0.871,12.308 0.698,16.236c-0.175,3.927 -1.398,7.594 -3.23,8.815c-1.31,0.961 -2.881,1.135 -4.016,0.437c-0.436,-0.262 -0.785,-0.61 -1.134,-0.96c-2.183,-2.182 -3.143,-2.357 -5.936,-1.135c-2.444,1.135 -6.721,-0.786 -8.729,-4.713c-1.309,-2.532 -1.833,-7.42 -2.967,-8.555c-1.135,-1.134 -3.23,-0.523 -4.19,0.96c-0.96,1.572 -0.175,3.928 1.221,5.238c1.485,1.309 2.619,2.967 4.103,5.411c1.485,2.358 0.612,5.063 -0.523,7.246c-0.961,2.007 -3.492,0.786 -5.412,-0.35c-1.833,-1.047 -3.579,-0.61 -4.364,1.31c-0.612,1.659 0.348,3.753 -2.619,3.055c-5.325,-1.223 -7.158,-3.841 -10.911,-7.071c-2.269,-1.919 -5.063,-5.236 -6.459,-3.49c-1.398,1.571 1.571,4.102 3.665,5.411c3.23,2.095 5.412,4.713 6.547,6.371c1.135,1.746 1.658,3.405 0.437,4.365c-0.786,0.611 -2.357,1.223 -3.754,0.35c-1.833,-1.048 -3.928,-0.525 -4.539,0.348c-0.698,1.048 0.524,2.794 2.357,3.405c2.008,0.698 3.492,2.881 3.579,5.15c0,0.785 -0.087,2.008 -1.223,2.269c-3.665,0.873 1.136,3.841 -4.451,4.452c-2.706,0.175 -3.579,-0.175 -6.634,-1.658c-3.055,-1.484 -5.062,1.31 -4.714,2.531c0.524,1.746 3.317,2.008 5.325,1.484c2.532,-0.699 6.722,2.008 7.507,3.404c0.698,1.484 -0.35,3.492 -1.921,5.325c-1.571,1.833 -3.316,2.182 -5.325,2.356c-2.444,0.263 -5.323,-0.262 -8.379,-0.435c-3.142,-0.175 -10.649,-2.794 -12.22,0.348c-0.961,1.921 3.317,3.23 6.721,3.317c4.626,0.087 9.078,-0.873 11.959,0.262c1.658,0.611 3.055,1.396 4.19,2.793c1.309,1.572 1.658,7.42 0.436,9.079c-1.048,1.483 -1.134,2.705 0.873,3.229c2.008,0.611 3.404,2.619 2.706,4.538c-0.35,1.048 -1.659,1.834 -2.619,2.707c-1.396,1.222 -3.142,1.396 -4.888,1.92c-1.658,0.436 -6.111,4.015 -0.96,5.324c1.833,0.35 3.142,-0.698 4.364,-1.832c2.357,-2.183 6.809,-3.404 9.689,-1.833c1.135,0.611 1.31,1.833 0.349,2.88c-1.309,1.484 -1.658,3.23 -0.61,4.364c2.356,2.357 -4.889,6.111 -7.421,7.507c-2.88,1.571 -5.673,3.317 -7.594,6.023c-1.919,2.532 -0.698,4.976 0.787,4.801c1.832,-0.175 3.054,-1.309 4.276,-2.444c2.531,-2.182 3.929,-4.015 8.031,-7.245c4.103,-3.229 7.507,-4.277 10.999,-2.793c3.491,1.396 1.221,5.325 3.317,8.554c0.523,0.786 0.96,1.833 2.618,1.484c1.745,-0.349 2.968,-3.84 5.935,-1.571c3.754,3.054 -0.349,10.475 -1.659,12.919c-1.308,2.444 -3.752,5.934 -4.451,7.594c-0.698,1.745 -3.142,6.634 -0.174,7.507c2.444,0.698 6.11,-10.475 7.419,-13.617c1.31,-3.23 4.801,-7.769 7.507,-8.032c1.048,-0.436 1.658,0.263 2.008,1.136c1.221,3.666 2.269,2.356 2.967,0.785c0.437,-0.611 0.786,-1.833 1.31,-2.967c1.396,-1.834 3.23,0.261 3.578,1.658c0.873,2.444 0.873,3.405 0.175,6.721c-0.611,3.317 2.706,4.451 3.754,3.753c1.571,-0.96 0.785,-3.579 0,-5.411c-0.786,-1.833 -0.088,-4.802 1.134,-5.848c1.222,-1.048 3.579,-2.271 4.975,-2.183c2.532,0.087 4.016,1.571 4.802,3.317c0.959,2.27 2.357,6.808 2.792,9.777c0.525,2.967 0.088,11.172 3.58,11.783c2.181,0.437 2.008,-4.276 1.222,-7.42c-1.135,-4.363 -2.881,-8.117 -2.881,-11.084c0.088,-3.842 2.182,-5.325 2.619,-5.675c1.658,-1.396 3.317,1.222 5.324,-0.261c1.048,-0.786 1.572,-2.881 2.183,-4.015c1.221,-2.532 2.88,-2.969 5.673,-2.619c4.801,-0.087 7.594,6.109 8.73,8.38c0.785,1.571 1.745,3.317 2.967,4.538c5.761,5.587 5.498,-0.611 5.412,-1.571c-0.349,-2.094 -1.572,-3.667 -3.056,-5.063c-1.483,-1.396 -3.578,-2.88 -5.848,-5.411c-2.269,-2.531 -3.404,-7.333 -2.619,-9.253c0.786,-1.833 1.921,-2.793 3.754,-2.531c1.833,0.174 4.888,-1.485 5.063,-3.929c0,-0.959 -0.175,-1.919 -0.175,-2.88c-0.175,-4.452 8.292,-1.571 10.126,-0.349c3.753,2.531 6.11,1.047 6.284,-0.261c0.175,-1.31 -0.786,-2.358 -1.92,-2.881c-2.968,-1.309 -7.506,-1.572 -9.777,-3.841c-1.221,-1.222 -1.746,-2.27 -2.007,-4.102c-0.262,-1.921 1.134,-3.318 2.793,-4.104c0.96,-0.436 1.222,-1.134 0.96,-2.181c-0.348,-1.572 0.612,-3.317 2.183,-3.667c1.659,-0.348 3.055,-0.348 4.801,0c2.094,0.262 7.681,1.31 9.165,1.31c1.484,0 3.928,-0.35 4.365,-1.048c0.523,-0.785 -1.572,-2.269 -2.794,-2.706l0,0Zm-45.303,-16.235c0,-4.714 2.27,-6.983 6.896,-6.983c4.713,0 6.896,2.183 6.896,6.983l0,4.277c0,4.801 -2.269,6.983 -6.896,6.983c-4.713,0 -6.896,-2.182 -6.896,-6.983l0,-4.277Zm-63.458,-0.96c0,-4.015 3.404,-6.023 6.896,-6.023l6.634,0l0,12.394c0,1.31 0.437,1.571 1.833,1.659l1.921,0l0,-8.467c0,-1.309 -0.787,-1.571 -2.183,-1.659l0,-3.927c2.183,0 4.102,0.349 4.888,1.92c1.397,-1.397 3.055,-1.92 5.237,-1.92c3.667,0 5.936,2.095 5.936,6.11l0,11.172c0,2.445 1.396,2.532 2.794,2.532l5.76,0c1.571,0 2.793,-0.174 2.793,-2.532l0,-1.046c-0.786,0.261 -1.746,0.348 -2.793,0.348c-4.714,0 -6.896,-2.182 -6.896,-6.982l0,-9.34l4.19,0l0,9.078c0,2.181 0.611,3.491 2.794,3.491c2.182,0 2.792,-1.31 2.792,-3.491l0,-9.078c0,-4.714 0.961,-5.587 5.761,-5.587l4.103,0l0,5.848c0.873,-0.349 1.746,-0.523 2.968,-0.523c4.19,0 6.721,2.095 6.721,6.198l0,5.498c0,4.365 -2.356,6.286 -6.896,6.286c-4.538,0 -6.896,-1.921 -6.896,-6.286l0,-13.703c-1.396,0 -1.571,0.261 -1.571,2.181l0,17.108c0,6.023 -3.665,6.111 -6.896,6.111l-6.022,0c-2.793,0 -6.896,0 -6.896,-6.197l0,-10.3c0,-2.27 -0.96,-3.23 -2.619,-3.23c-1.571,0 -2.88,0.786 -2.88,3.055l0,11.173l-2.968,0l-3.142,0c-2.183,0 -4.19,-0.175 -5.063,-2.095c-0.873,0.96 -2.008,2.183 -4.365,2.183c-3.752,0 -5.935,-2.096 -5.935,-6.111l0,-5.848l0,0Zm77.338,37.271l-4.103,0l0,-10.998c0,-2.269 -0.96,-3.23 -2.619,-3.23c-1.571,0 -2.881,0.786 -2.881,3.056l0,11.085l-4.189,0l0,-12.307c0,-1.222 -0.699,-1.484 -1.92,-1.659c0.261,0.873 0.436,1.833 0.436,2.969l0,10.386c0,5.413 -3.667,6.023 -6.896,6.111l-0.349,0l-4.539,0l-0.873,0c-2.794,0 -6.896,0 -6.896,-6.198l0,-1.571l0,-0.961l0,-8.553c-0.349,0 -0.786,0 -1.222,0l-0.437,0l-3.84,0l-0.349,0c0,-1.572 -0.873,-2.445 -2.705,-2.445c-1.573,0 -2.619,0.612 -2.619,1.833c0,3.754 9.601,-0.611 9.601,6.373c0,3.928 -3.055,6.109 -6.896,6.109c-3.666,0 -6.11,-1.746 -6.72,-4.363c-0.525,2.792 -2.707,4.363 -6.809,4.363l-6.721,0c-2.183,0 -4.19,-0.261 -5.063,-2.094c-1.048,1.221 -2.27,2.182 -4.714,2.182c-3.491,0 -5.849,-1.92 -5.849,-6.284l0,-5.5c0,-4.103 2.532,-6.197 6.722,-6.197c1.135,0 2.095,0.175 2.968,0.523l0,-5.848l4.103,0l0,17.807c0,1.309 0.435,1.571 1.833,1.659l0.175,0c-0.263,-0.873 -0.437,-1.834 -0.437,-3.056l0,-4.015c0,-4.451 2.269,-6.983 6.896,-6.983c3.927,0 6.109,1.484 6.721,4.713c0.611,-3.142 3.317,-4.713 6.721,-4.713c2.532,0 4.538,0.873 5.674,2.357l0.698,0c1.571,0 2.181,-0.786 2.181,-2.183c0,-0.261 0,-0.436 0,-0.436c1.398,0 3.405,-0.611 4.104,-2.269l0,19.727c0,2.444 1.396,2.531 2.793,2.531l5.76,0c1.571,0 2.707,-0.175 2.707,-2.531l0,-1.048c-0.786,0.262 -1.746,0.349 -2.794,0.349c-4.713,0 -6.895,-2.181 -6.895,-6.983l0,-2.531c0,-4.714 2.269,-6.983 6.895,-6.983l6.198,0c2.182,0 4.102,0.349 4.888,1.92c1.397,-1.396 3.142,-1.92 5.325,-1.92c3.665,0 5.936,2.095 5.936,6.11l0,11.696Z" style="fill-rule:nonzero;"/><path d="M57.87,83.196c-2.27,0 -2.881,1.31 -2.881,3.405l5.674,0c-0.087,-2.27 -0.786,-3.405 -2.793,-3.405Z" style="fill-rule:nonzero;"/><path d="M107.624,68.62c2.182,0 2.794,-1.31 2.794,-3.492l0,-3.84c0,-2.183 -0.612,-3.492 -2.794,-3.492c-2.182,0 -2.793,1.309 -2.793,3.492l0,3.84c0,2.269 0.611,3.492 2.793,3.492Z" style="fill-rule:nonzero;"/><path d="M64.678,87.561l0,2.619l-9.689,0l0,0.087c0,2.182 0.611,3.492 2.794,3.492c1.832,0 2.619,-0.786 2.88,-2.008l8.031,0c0.088,1.222 0.959,2.008 2.967,2.008c1.659,0 2.357,-0.873 2.357,-1.746c-0.087,-2.968 -7.682,0 -9.34,-4.452l0,0Z" style="fill-rule:nonzero;"/></svg>